<svg id="Layer_1" data-name="Layer 1" xmlns="http://www.w3.org/2000/svg" viewBox="0 0 91.01 83.83"><defs><style>.cls-1{fill:#e9b20c;}</style></defs><path class="cls-1" d="M347.73,421.17c1,12.16,1.82,14.49-12.38,19.24-18,6-36.53,5.65-54.85.35a38.7,38.7,0,0,1-3.77-1.25C267.9,436,264,427,267.45,418.13c1.39-3.57,4.56-4,7.23-1.38,4.91,4.89,11.38,6.72,17.87,8,18.19,3.63,36.24,3.89,53.76-3.48A4.38,4.38,0,0,1,347.73,421.17Z" transform="translate(-266.2 -383.97)"/><path class="cls-1" d="M315.7,467.8c-10.5-.27-21.3-1.63-31.57-5.92-7.91-3.3-9.46-6-8.83-14.52.17-2.33.72-2.9,3-2,17.07,7.12,34.69,6.71,52.33,3.05,7.2-1.49,14.68-3.11,19.36-10,1-1.42,5.26,1.34,6.13,3.92,3.06,9.08-.21,16.22-9.19,19.91C337.08,466.35,326.68,467.28,315.7,467.8Z" transform="translate(-266.2 -383.97)"/><path class="cls-1" d="M355.46,398.33c-.07-6.35-4.79-7.93-9.26-9.53-13.21-4.76-26.94-5.5-40.8-4.35-8.47.7-16.88,1.76-24.62,5.63-2.23,1.11-4.46,2.34-5.52,4.79-3.85,8.92-.66,17.16,8.27,20.83a76.44,76.44,0,0,0,28.74,5.43c13.68.1,24.47-1.76,35.07-5.78C356.06,412.05,355.53,405.43,355.46,398.33Zm-71.18-1.75c-.14-3.55,3-4.46,5.63-5.46,8.51-3.26,17.49-3.73,26.46-3.62,7.8.1,15.62.6,23.05,3.34,2.9,1.07,6,2.11,6.67,5.75C325.45,390.05,305,389.81,284.28,396.58Z" transform="translate(-266.2 -383.97)"/></svg>