<svg id="Layer_1" data-name="Layer 1" xmlns="http://www.w3.org/2000/svg" viewBox="0 0 399.83 399.6"><defs><style>.cls-1{fill:#767676;}.cls-2{fill:#1e1e1e;}.cls-3{fill:#747474;}.cls-4{fill:#353535;}.cls-5{fill:#9d9d9c;}.cls-6{fill:#949393;}.cls-7{fill:#9b9a9a;}.cls-8{fill:#7e7f7f;}.cls-9{fill:#787878;}.cls-10{fill:#a2a1a1;}.cls-11{fill:#3b3b3b;}.cls-12{fill:#969696;}.cls-13{fill:#717171;}.cls-14{fill:#6e6e6e;}.cls-15{fill:#525151;}.cls-16{fill:#7a7a7b;}.cls-17{fill:#4b4a4a;}.cls-18{fill:#737373;}.cls-19{fill:#6a6a6a;}.cls-20{fill:#686867;}.cls-21{fill:#444;}.cls-22{fill:#646463;}.cls-23{fill:#707070;}.cls-24{fill:#979797;}.cls-25{fill:#202121;}.cls-26{fill:#a4a3a3;}.cls-27{fill:#414141;}.cls-28{fill:#909090;}</style></defs><path class="cls-1" d="M-230.24,304.62C-121.17,304-30.7,393-30.71,503.9-30.73,615.62-120,704-230.52,704.2c-111.79.19-199.65-90.89-200-199.54C-430.93,394.45-339.67,303.11-230.24,304.62Z" transform="translate(430.55 -304.6)"/><path class="cls-2" d="M-44.34,503.38C-43.17,607.13-129,692.5-234,690.69c-99.83-1.73-184.06-83.27-183.16-188.06a186,186,0,0,1,186.9-184.91C-125.86,317.93-44.06,402.86-44.34,503.38Z" transform="translate(430.55 -304.6)"/><path class="cls-3" d="M-225.26,702.88c-3,.65-4.51.74-6.61.08C-229.76,702.21-228.15,702.34-225.26,702.88Z" transform="translate(430.55 -304.6)"/><path class="cls-1" d="M-194.21,515.23c2.37-.21,2.9-2.54,4.3-3.84,5.11-4.73,11.12-6.37,17.93-5.92,3,.19,2.49,1.65,1.91,3.69a50.37,50.37,0,0,0-.34,24.67c1.7,7.82,6.69,9.58,13.15,4.84,8.2-6,11.27-14.61,11.72-24.28,1-22.16-4.62-43.21-11.45-63.93-9.06-27.49-20.65-54-31.82-80.7-1.84-4.39-3.61-8.8-5.85-14.29,7,4,13.11,7.12,17.09,13.14.9,1.66.85,4,4.26,2.77,1.91-.7,2.93,2.3,3.51,4.16,1,3.18,1.2,6.53,1.81,9.89,1.65-.41,1.43-3.33,3.51-2.78,1.81.47,2.24,2.3,2.87,3.84,1.44,3.47,1.51,7.12,1.47,10.8a23.82,23.82,0,0,0,.2,5.27,1.66,1.66,0,0,0,1.34-1c.95-1.47.8-4.12,3-4.25,2.5-.15,2.78,2.52,3.61,4.22,3.62,7.4,4,15.29,3.07,24,2.83-1.31,3.56-3.81,5.07-5.54.95-1.09,1.66-2.8,3.46-2.35,1.64.41,2.09,2.06,2.41,3.53,1.61,7.24,2,14.48-.32,21.67-.11,1-1.3,1.93-.27,2.95.29.29.81-.24,1.17-.54a44.83,44.83,0,0,0,6-6c.81-1,1.69-2.34,3.22-2,1.84.43,1.87,2.18,1.95,3.65.53,10.21.31,20.33-4.7,30.3,4-2.3,6.27-5.51,8.81-8.44,1.06-1.24,2-3.1,4-2.5,2.19.69,1.24,2.77,1.16,4.32-.19,3.65-.15,7.31-1,10.93a27.34,27.34,0,0,1-4.14,10.35c5-2.25,8.35-5.27,12-7.88,1.06-.76,2.16-2,3.52-1.36,1.56.75,1.49,2.54,1.4,4a29.63,29.63,0,0,1-5.48,16.34,44.46,44.46,0,0,0-3.77,5.12c2.72-.62,4.55-1.83,6.51-2.63,1.49-.61,3.15-1.93,4.63-.57s.47,3.13.21,4.75c-1.09,6.77-5.67,11.09-11.12,15.43,3.43.45,6.19-.57,9-1.08,1.46-.26,3.1-.71,4,1,.75,1.36-.13,2.59-.84,3.7-4.14,6.47-9.47,11.54-16.7,14.49-1.46.59-3.13,1-4.46,2.79a35.15,35.15,0,0,0,10.2,2.38c1.29.12,3,0,3.44,1.48.55,1.77-1.09,2.63-2.27,3.47a25,25,0,0,1-10.5,4.43c-3.75.23-7.51,0-11.41.13a17.84,17.84,0,0,0,2.48.55c4.6,1.46,9.33,2.37,14,3.56,1.4.35,3.08.75,3.19,2.62.09,1.54-1.24,2.25-2.35,3-5.12,3.24-10.52,5.52-16.77,5.45-7.47-.07-14.93-.15-22.39.12-4.36-.26-5.19-3.86-6.59-6.93a27.25,27.25,0,0,0-9.57-12.87,3,3,0,0,1-1.32-2.34,22.55,22.55,0,0,0-9.12-12c-5.08-4.72-8.6-10.63-12.35-16.35C-194.88,516.11-194.61,515.58-194.21,515.23Z" transform="translate(430.55 -304.6)"/><path class="cls-1" d="M-281.28,366.6a57.47,57.47,0,0,1,14.49-10.16,20.6,20.6,0,0,1-1.93,7.82c-11.91,29-24.77,57.67-34.47,87.54-6.57,20.24-12.06,40.82-11,62.42.44,9,3.06,17.27,10.4,23.41s12.57,4.51,14.58-4.63c.7-3.22,1.15-6.49,1.72-9.74,1,2.09.69,4.2.43,6.31.2-4.94.18-9.89.1-14.84-.17-.66-1,.11-.38-.15.2-.08.3,0,.32.38.08,1.29.5,2.63-.48,3.78-.48-2.24-.9-4.49-1.47-6.71-1.74-6.8-1.77-6.76,5.15-6.55a20.07,20.07,0,0,1,14.19,6.18c1.27,1.27,2.19,3,4,3.59,1.1,3.16-1.85,4.48-3.06,6.56a21.67,21.67,0,0,1-6,7c-4,2.24-6.13,6-8.16,9.87a7.45,7.45,0,0,1-2.08,3.34,21.73,21.73,0,0,0-4.1,4.91c-1.77,2.2-4,4.1-4.89,6.91a4.51,4.51,0,0,1-1.16,1.64c-2.15,1.76-3.38,4.23-4.91,6.47a11.79,11.79,0,0,1-3.81,3.39c-13.18,1.95-26.39,4-38.57-3.88-1.36-.88-3.29-1.65-3-3.6s2.3-2.21,3.92-2.58c4.7-1.06,9.48-1.79,14.84-3.63-7.46.58-14-.07-19.87-3.74a21.43,21.43,0,0,1-2.54-1.57c-.78-.64-1.62-1.39-1.37-2.47s1.4-1.32,2.37-1.49c4.05-.72,8.21-1,12.37-3.27-8.18-2.74-15.18-6.6-19.93-13.66a29,29,0,0,1-2.19-3.33c-.57-1.16-1.45-2.42-.37-3.68.85-1,2.13-.76,3.28-.55,2.92.52,5.77,1.57,9.54,1.14-5.16-4.19-10-8-11.33-14.48a18.11,18.11,0,0,1-.7-3.41c0-2.45,1.15-3.32,3.5-2.56,2.62.85,4.91,2.58,7.94,2.91a32.73,32.73,0,0,1-8.11-16.84,26.54,26.54,0,0,1-.57-3.44c0-1.64-.37-3.58,1.3-4.52s2.76.62,3.9,1.49c3.18,2.42,6.4,4.77,9.7,7,.54.31,1.26,1.15,1.6.83.74-.71-.39-1.27-.59-1.95-4.16-6.36-4.18-13.55-4.17-20.74,0-1.23.22-2.42,1.56-2.82s2.16.66,2.92,1.5c2.85,3.18,5.37,6.69,9.27,9.19-4.52-9.84-5-20.07-4.62-30.44.06-1.47-.15-3.39,1.37-4,1.9-.78,2.85,1.18,3.93,2.33a45.57,45.57,0,0,0,7.37,6.76c-1.93-6.49-1.76-12.09-1.71-17.68a20.3,20.3,0,0,1,.28-4.48c.51-2.23.39-5.21,2.93-5.95,2.95-.85,3.46,2.43,4.86,4.11.94,1.12,1.41,2.66,3.29,3.44.67-2.38-.35-4.59-.38-6.78-.08-6.33,1.73-12.17,4.32-17.82.66-1.44,1-3.5,3.13-3.39,1.84.11,1.92,2.06,2.58,3.34a4.58,4.58,0,0,0,1.81,2.32c.37-3.61,0-7,.32-10.38a29.3,29.3,0,0,1,1.31-5.85c1.6-4.94,2.88-5.22,6.35-1.32.47-3.72.79-7.39,2.08-10.81.81-2.14,1.75-4.73,5-2.69,1.42.89,1.64-.19,1.92-1.18A15.69,15.69,0,0,1-281.28,366.6Z" transform="translate(430.55 -304.6)"/><path class="cls-4" d="M-281.28,366.6c-.59,2.72-1.18,5.43-1.77,8.11-2.34.31-1.81-3.83-4.12-2.52-1.62.92-1.78,3.14-2.06,4.91-.63,3.87-1,7.79-1.53,11.93-2.88-1-2.78-3.91-4.27-6.1-4.62,7.17-3.12,15.08-3.45,23.05-3.95-1.39-4.34-4.87-5.84-8.94a73.38,73.38,0,0,0-5.53,15.19c-1.21,5.3.63,10.48.34,16.2-4.13-1.41-5.31-4.83-7.22-7.56-.71-1-.72-3-2.45-2.64-1.31.26-1,1.89-1.3,3a49.37,49.37,0,0,0,.38,22.68c.3,1.28,1,2.48.37,4.05-5.24-2.22-8.33-6.79-12.47-11.26-.76,13.24-.5,25.5,6.49,37.91-7.35-3.44-10.91-9-15.74-14.38-.39,9,0,16.9,4.14,24.21.67,2,.26,3-2,2.07-5-2.31-9-6.11-13.82-9.91-.52,10.84,3.43,19.13,11,26.63-5.94.88-9.39-3.11-13.93-4.26-.23,10,6.72,15.27,13.85,21-5.87,1.54-10.52-.47-15.37-1.46,2.49,8.53,9.58,14.4,24.18,20.24-3.45,3.07-3.45,3.07-16.35,5.22,7.7,7,17,7.12,26.55,7-6.64,4.13-14.31,4.48-22.33,6.66,5.59,4.35,10.85,7.63,17.29,7.79,8.28.19,16.61.64,24.85-.91a2.37,2.37,0,0,1,.74,2c-3.8,5.7-6.64,12.15-12.53,16.25-4.7-3.67-10.51-2.07-15.76-3.14-12.26-2.52-21.08-10-29.3-18.62-1.38-1.44-.81-2.34,1.11-2.51s4.23.43,6.95-.91c-5.15-2.71-10.15-4.53-13.42-8.89-3.14-4.19-3.11-4.37,1.75-5.55,3.28-.8,6.76-1.07,9.67-3.32-3.78-2.15-7.61-4.11-11.22-6.42a24.42,24.42,0,0,1-9.36-12c-1-2.5-1.94-5.71,3.22-4.21,3.43,1,6.91,0,11-1.21a62,62,0,0,1-9.32-7.41,25.52,25.52,0,0,1-5.05-8.52c-.94-2.35-.45-4,2.79-3s6.62.31,9.93.44c.79,0,1.78.2,2.23-.68.6-1.17-.45-1.81-1.1-2.49-6.14-6.4-9.75-14.1-11.74-22.66-.26-1.14-1-2.37-.07-3.3,1.22-1.27,2,.44,2.93.82.46.19.88.48,1.34.67a27.51,27.51,0,0,0,10.5,2.24c-.41-3.55-3-6-4.88-8.62-3.62-5-3.67-10.94-4.17-16.6-.32-3.64,2.44-1.58,3.64-.78a44.77,44.77,0,0,0,17,6.68c-5.36-11.43-7.46-22.64-4.06-35,5,5.87,9.65,11.7,17.34,14.16.62-3.26-.76-6.43-1.33-9.4-1.6-8.28,1-15.7,3.2-23.29.24-.81.38-1.8,1.3-2,1.27-.22,1.55,1,2,1.82,2.07,4.08,3.75,8.45,8.79,11.06-.2-10.65-.84-21,5.78-30.25,3.27,4.88,3.86,11.19,9.41,15.19-1.38-7.05-2.1-13.63.15-20a81.75,81.75,0,0,1,3.83-7.86c1.71,4.48,2.73,8.18,6.79,11.48,0-3.83.05-6.81,0-9.8-.11-5.53,2.52-9.85,6-13.78.53-.59,1.17-1.31,2.1-1s.84,1.33.85,2.13c0,4.66,0,9.32,0,14.49C-282.74,369.5-282.92,367.29-281.28,366.6Z" transform="translate(430.55 -304.6)"/><path class="cls-4" d="M-122.43,550.58a34.78,34.78,0,0,0,13.11-6.71c-6.34-.62-11.91-.91-17.81-4.54,11.07-4.17,20.52-9.35,25.52-20.52-5.22.15-10,3-15.84,1.15,7.16-5.47,13.67-11.07,13.63-20.85-4.47.89-7.88,5.09-13.73,4.08,7.24-7.39,11.66-15.48,11-26.25-5.89,3.94-10.8,8.81-17.72,11,5.71-8.28,6.13-17.56,6.19-27.92-4.82,5.46-8.75,10.71-14.87,14.06,5.36-11.55,6.61-23.56,5.22-36.72-3.68,3.26-5.88,7.11-9.68,9.15-3.39.82-2.53-1.19-2-3,1.73-8.5,2.26-17-1-25.82-3.59,3.37-4.66,8.4-10,11.12,1-11.08,1.32-21.55-5.24-31.36-1.23,3.36-1.72,6.81-5.45,8.66-1-7.9,1.35-16.13-3.67-23.21-1.46,2.1-1.54,4.85-4.23,6.68-1.21-6.3-.08-12.71-4.09-17.69-2,.25-1.52,2.73-3.38,2.87-1.43-1.86-.74-4.13-1.1-6.19.91.33,2.32,2.42,2.16-.72A39.64,39.64,0,0,1-173.92,354a17.88,17.88,0,0,1,7.17,10.77c.83,4.13.18,8.56.18,13.3,4.92-1.93,4.8-6.48,6.87-10.29,6.44,8,5.84,16.94,4.15,26.84,5.47-3.91,6.34-9.63,9.24-14.64,3.67,4.31,5,9.39,5.68,14.45s.13,10.17.13,15.92c5.75-3.57,7.68-8.95,10.47-13.62,5.11,6.54,6.07,16.86,3.08,36,3.58-2.22,7-3.88,9.82-6.21s5.25-5.43,7.94-8.3c3.73,11.67.81,22.69-3.42,34.18,6.36-1.3,11.58-3.05,16.25-6.32,2.86-2,4.16-1.29,3.9,2.27-.51,7.1-2.19,13.68-7.21,19.13-1,1.14-3.25,2.74-1.93,4.52,1.11,1.5,3.06-.21,4.65-.4,3.51-.42,6.56-2.19,10.67-4a44.84,44.84,0,0,1-5.78,17.76c-1.83,3.12-4.31,5.86-6.52,8.76-.59.76-1.71,1.35-1.36,2.46s1.64.94,2.58.9c4.11-.19,8.35.89,12.2-1.6,1,6.3-2.71,12.54-13.69,20a17.11,17.11,0,0,0,11,1.46c5.06-1,3.51,2.06,2.76,4.18-2.4,6.77-7.35,11.32-13.58,14.6-2.33,1.22-4.69,2.4-7.49,3.82,3.71,2.28,7.54,2.85,11.11,3.32,4.73.63,3.38,2.58,1.56,4.64-3.18,3.6-6.37,7.3-11.47,8.35-.74.15-1.67.24-2,1.33,1.19,1.67,3,.64,4.5.94,1.21.25,3-.66,3.47,1,.37,1.29-.6,2.59-1.59,3.47-10.23,9.23-20.94,17.43-35.69,17.55-2.44,0-4.86.78-7.41,1.21.07,2.39,1.87,4.39,1.19,6.77a1.63,1.63,0,0,1-1.92-1.18,65.48,65.48,0,0,0-10.7-16.78c-.93-1.09-1.93-2.36-1.42-4,1.21-1.74,3-1,4.59-1,6.16,0,12.32-.05,18.47.14,7.21.22,12.93-3.15,19.25-7.33l-18.22-4.87c-2.14-1.68-1.18-2.24.87-2.41C-128.52,550.77-125.44,551.48-122.43,550.58Z" transform="translate(430.55 -304.6)"/><path class="cls-5" d="M-156.51,566.51c5.2,7,11,13.61,14,22,2.07,7.12,2.18,14.4,2.1,21.74q-.16,15.71,0,31.43c.07,5.9-2.74,9.64-8,11.82-6.87.92-7.34.61-7.36-5.92-.06-15.78-.09-31.57,0-47.35a24.72,24.72,0,0,0-5-15.82c-19.92-26-39.41-52.25-59.27-78.21-2.69.47-3.59,3.13-5.54,4.49-1.4,1-2.79,2-4.4.35a7.78,7.78,0,0,1-.86-4.31q-.08-16.55,0-33.11c0-1.82,0-3.64,1.39-5.1,8.83-2.72,9.84-6.19,3.69-13.27-1.27-1.47-.85-2.73-.4-4.13,4.89-15,9.83-30,14.69-45.06,1.11-3.43,2.78-3.31,4.91-1a11.18,11.18,0,0,1,2.82,7.8q.3,27.24.59,54.47c.05,5.12-2.91,9.25-5.48,13.16-4.2,6.38-3.89,11.32,1.4,17,4.93,5.34,8.7,11.76,13,17.7a172.76,172.76,0,0,0,12.71,17.36,39.55,39.55,0,0,1,8.87,12l1.24,1.85c4.12,3.77,7,8.45,9.91,13.13C-160,562.06-159.26,565-156.51,566.51Z" transform="translate(430.55 -304.6)"/><path class="cls-5" d="M-315.19,582.78l11.82-16.28c1-1.43,1.37-3.27,2.87-4.37,1.66-2.61,3.38-5.18,5.27-7.63l1-.82c1.37-2.24,2.47-4.68,4.56-6.4,1.49-1.9,2.76-4,4.3-5.82l2.07-2.9c1.78-4,4.84-7,7.93-10a97,97,0,0,0,9.75-13.32c5.35-7.39,10.57-14.87,16.11-22.11,2.13-2.78,2.15-4.91.58-8-2.59-5.14-6-9.95-7.45-15.63a50.62,50.62,0,0,0,0-14.95c.09-14.12.14-28.24.29-42.36a11.2,11.2,0,0,1,1-4.34c.89-2,2.07-4.32,4.4-4.3,2.49,0,2.33,2.83,2.9,4.56,4.63,14,9.1,28.09,13.79,42.08.87,2.6,1.19,4.2-1.44,6.25-4.09,3.19-3.31,11,5,12.07,1.06,7.36.33,14.75.44,22.13.11,6.75.17,13.5-.06,20.24-3.06,2-4.59-.7-6-2.33-2.53-2.87-4.08-2.28-6.18.5C-261,533.89-279.37,559-298.49,583.51a27,27,0,0,0-5.64,17.64c.18,15.47.09,31,0,46.42,0,6.56-.48,6.87-7.36,5.93-5.29-2.19-8-6-8-11.88.12-11.82.23-23.64,0-35.46A62.73,62.73,0,0,1-315.19,582.78Z" transform="translate(430.55 -304.6)"/><path class="cls-1" d="M-311.45,653.5c4.63.7,6.29-.94,6.16-5.9-.37-13.29.57-26.63-.33-39.87-.85-12.5,3.3-22.31,11.07-31.74,10.2-12.38,19.45-25.54,29.11-38.36,7.67-10.19,15.46-20.28,22.95-30.6,2.52-3.47,4.33-3.22,6.72-.16,1.31,1.67,2.89,3.12,4.34,4.67a3.3,3.3,0,0,1,.83,1.16,5.48,5.48,0,0,1,.18,2.13c-2,5.33-6.38,9.08-9.29,13.82-1.43,1.78-3.14,3.34-4.27,5.36-11.89,15.47-23.6,31.08-35.67,46.41-1.71,2.18-3.15,4.69-5.76,6-7.65,7.29-10,16.51-9.86,26.7.1,9.82.07,19.65,0,29.47C-295.33,651.46-303,656.54-311.45,653.5Z" transform="translate(430.55 -304.6)"/><path class="cls-1" d="M-231.41,514.53v-2c.77-1,2.11-.29,3-1l2.83-2.07a13,13,0,0,0,5.16-5c6.45,5.84,10.79,13.36,16,20.17,14.43,18.77,28.66,37.7,43,56.5,4.57,6,7.26,12.31,7.08,20.11-.36,15.45.11,30.91-.23,46.36-.11,4.95,1.52,6.61,6.14,5.92-8.49,3-16-2-16.21-10.91-.33-12.29.42-24.58-.52-36.9-.6-7.88-4.39-13.72-9.28-19.27-2.83-1.59-4.67-4.22-6.53-6.7-10.81-14.47-21.88-28.75-32.92-43C-219.6,529.23-224.74,521.26-231.41,514.53Z" transform="translate(430.55 -304.6)"/><path class="cls-4" d="M-231.41,514.53c1.92-1.12,2.48.39,3.4,1.6q23.79,31.23,47.63,62.42c2,2.63,4.77,4.67,6,7.88-2,2,.32,3.32.83,4.82,2,5.78,1,7-4.86,6.07-1.16-.18-2.61-1.74-3.43.06-.62,1.37,1.12,1.74,2,2.42s1.71,1.64.57,2.38a35.79,35.79,0,0,1-8.27,4.45c-1.76.55-3.42-1.53-4.94-2.74-15.2-12.15-25.92-27.15-29.77-46.55-1-5-3.16-9.74-3.06-15,1.16-.3,1.62,1,3,1.24a28,28,0,0,0-1.67-9.83c-.24-.62-.75-.75-.36-.21a1.18,1.18,0,0,0-.61.75,10.6,10.6,0,0,0,.36,4.52,2.83,2.83,0,0,1-.82,2.65c-1.89,1.15,0,3.86-2.05,5-1.19-1.36-1.26-3-1.27-4.68-.18-3,.52-6.16-.57-9.16a4.36,4.36,0,0,1-.43-2.16c.43-4.41-.6-8.82-.15-12.1-.13,3,.14,7.25-.41,11.42-.09.49-.19,1-.31,1.45a4,4,0,0,1-1.81,2.31,5.56,5.56,0,0,0-.82.09c-1-.33-1.34-1.46-2.37-1.68-.41,0-.82-.07-1.23-.08-2.14-.27-3.83-1-3.71-3.58C-238.33,523.15-233.44,519.79-231.41,514.53Z" transform="translate(430.55 -304.6)"/><path class="cls-4" d="M-285.41,586.46c7.8-10.28,15.55-20.59,23.4-30.82,5.74-7.47,11.61-14.85,17.42-22.26.84-.41,1.32.07,1.74.69,1,2.13-.33,4.09-.55,6.77,1.1-1.93,1.3-3.67,2.38-4.94,1.28-1.44,2.55-2.61,3.55.22.4,1.81-.09,3.56-.39,5.33s.07,3,2.26,2.6a1.45,1.45,0,0,1,1.17.44c-2.34,11.88-4.67,23.88-10.86,34.43a84.74,84.74,0,0,1-22.61,25.5c-3.18,2.35-10.08.87-12.36-2.32-.78-1.09-.58-1.76.45-2.41,1.35-.86,3-1.45,2.93-3.89-2.52.17-4.55,2-7.13,1.73s-3.61-.48-2.85-3.54C-286.25,591.55-284.53,589.21-285.41,586.46Z" transform="translate(430.55 -304.6)"/><path class="cls-6" d="M-226.32,533.29c.58-.9.61-2.48,2.16-2.28s1.52,1.54,1.71,2.67q.62,3.65,1.17,7.29c.27,1.8,1.87,4.23-.94,5-2.62.74-1.94-2.48-3.13-3.61a1.22,1.22,0,0,0-.09-.88c-.05-1-.09-2-.13-3C-226.37,536.82-225.39,534.91-226.32,533.29Z" transform="translate(430.55 -304.6)"/><path class="cls-7" d="M-231.36,531.48a.57.57,0,0,0,0-.64c.43-1.19,1-.7,1.64-.17l1.24.83c1.14,3.21.23,6.52.52,9.77-.2,1.75.46,3.58-.48,5.27-1.05,1-2.1,1.76-3.11,0A50.69,50.69,0,0,1-231.36,531.48Z" transform="translate(430.55 -304.6)"/><path class="cls-8" d="M-228.42,511.52c-.72,1.16-1.9.94-3,1,0-.32,0-.64,0-1,1.67-1.46,1-3.42,1-5.15.06-12.63,0-25.26,0-37.88l1,0c0,12.6,0,25.21.06,37.82C-229.35,508.09-230,510-228.42,511.52Z" transform="translate(430.55 -304.6)"/><path class="cls-9" d="M-287.51,518.74l.36-5.22.54.05v16.88l-.89,0v-7.21C-287.5,521.76-287.51,520.25-287.51,518.74Z" transform="translate(430.55 -304.6)"/><path class="cls-10" d="M-256.33,454.55a24.77,24.77,0,0,1,0,14.95Z" transform="translate(430.55 -304.6)"/><path class="cls-11" d="M-231.36,531.48q-.07,7.5-.16,15c-1.93-4.2-.36-8.66-.92-13A2.17,2.17,0,0,1-231.36,531.48Z" transform="translate(430.55 -304.6)"/><path class="cls-11" d="M-235.57,530.58c2.27-.12,2.1,1.6,2.31,3-.42,2,.51,4.2-1,6l-.64-.49A15.45,15.45,0,0,1-235.57,530.58Z" transform="translate(430.55 -304.6)"/><path class="cls-11" d="M-234.43,544.49h-.89c-1.46-2-2-3.78.72-5.14l.37.29C-234.29,541.27-234.36,542.88-234.43,544.49Z" transform="translate(430.55 -304.6)"/><path class="cls-12" d="M-228.41,546.54c.06-1.79.11-3.57.17-5.36a.7.7,0,0,1,.69.6l.06,4.68-.45.13Z" transform="translate(430.55 -304.6)"/><path class="cls-13" d="M-172.63,544.63a71.6,71.6,0,0,1-8.87-12C-177.86,533.7-172.1,541.52-172.63,544.63Z" transform="translate(430.55 -304.6)"/><path class="cls-14" d="M-161.48,559.61c-4.18-3.71-6.67-8.7-9.91-13.13A22.09,22.09,0,0,1-161.48,559.61Z" transform="translate(430.55 -304.6)"/><path class="cls-15" d="M-122.43,550.58c-2.67,1.84-5.68.68-8.52.9-1.48.11-2.24.33-1.47,1.94a10.08,10.08,0,0,1-6.17-2.84Z" transform="translate(430.55 -304.6)"/><path class="cls-16" d="M-173.18,529.46V513.75h.41v15.71Z" transform="translate(430.55 -304.6)"/><path class="cls-17" d="M-139.44,443.55c0,1.43-.06,2.92,2,3-.59,1-1.55,2.38-2.51,1.35S-140.82,444.87-139.44,443.55Z" transform="translate(430.55 -304.6)"/><path class="cls-18" d="M-275.35,528.57c-1.95,3.88-5.17,6.75-7.93,10C-283,534.87-278.11,528.74-275.35,528.57Z" transform="translate(430.55 -304.6)"/><path class="cls-19" d="M-289.34,547.6c-1.81,1.87-2.17,4.91-4.87,6.08-.13-3.56,2.35-5.37,4.82-7.19.29.23.4.47.32.73S-289.24,547.6-289.34,547.6Z" transform="translate(430.55 -304.6)"/><path class="cls-20" d="M-295.23,554.5c-.67,3.35-3.15,5.56-5.12,8.09-.33-.24-.45-.49-.35-.75s.2-.39.3-.39C-299.38,558.61-298.11,556-295.23,554.5Z" transform="translate(430.55 -304.6)"/><path class="cls-14" d="M-289.34,547.6c0-.37,0-.74-.05-1.11.24-2.57,2.16-3.78,4-5C-285.86,544-287.48,545.9-289.34,547.6Z" transform="translate(430.55 -304.6)"/><path class="cls-21" d="M-339.35,486.5c1.36,0,2-.79,2-2.07.87,1.09,2.61,2.3,1.19,3.61C-337,488.84-338.48,487.56-339.35,486.5Z" transform="translate(430.55 -304.6)"/><path class="cls-22" d="M-300.4,561.45c0,.38,0,.76,0,1.14-.87,1.4-1.34,3.13-3,3.91l0-2A6.3,6.3,0,0,1-300.4,561.45Z" transform="translate(430.55 -304.6)"/><path class="cls-23" d="M-220.43,504.45c-.54,2.88-2.18,4.63-5.16,5A17.57,17.57,0,0,1-220.43,504.45Z" transform="translate(430.55 -304.6)"/><path class="cls-10" d="M-317.52,598.79v45.33H-318V598.6Z" transform="translate(430.55 -304.6)"/><path class="cls-11" d="M-243.27,534.76l-1.32-1.38c.58-2.31,2.38-3.63,4-5.09,1.22,1.27,2.13,3.12,4.43,2.35.42,2.43.7,4.81-2.2,6-.38-3.16-1.3-.22-2-.17C-241.45,536.2-240.61,532.5-243.27,534.76Z" transform="translate(430.55 -304.6)"/><path class="cls-24" d="M-238.33,536.67q1.11-3,2.2-6a.61.61,0,0,0,.56-.06c2.67,2.67.68,5.85,1,8.78-1,1.61-.75,3.39-.72,5.14-.69,1-1.44,2-2.8,1.42s-1.36-1.76-1.2-2.94C-239,540.87-238.66,538.77-238.33,536.67Z" transform="translate(430.55 -304.6)"/><path class="cls-25" d="M-229.69,530.67l-1.64.17c-.83-4.8,1.55-9.33,1.56-14.16.51,4,1,8.05,1.59,12.05C-227.95,530.17-228.68,530.42-229.69,530.67Z" transform="translate(430.55 -304.6)"/><path class="cls-26" d="M-219.62,531.17a16.63,16.63,0,0,1,4.22,9,3.41,3.41,0,0,1-.36,1.86,1.56,1.56,0,0,1-1.2,0C-218.35,538.77-220.43,535.66-219.62,531.17Z" transform="translate(430.55 -304.6)"/><path class="cls-27" d="M-227.55,541.78q-.36-.28-.69-.6l-.21-9.68C-226.28,534.76-227.8,538.35-227.55,541.78Z" transform="translate(430.55 -304.6)"/><path class="cls-27" d="M-226.32,533.29c1.12,1.6.82,3.4.75,5.17C-227,536.91-226.28,535-226.32,533.29Z" transform="translate(430.55 -304.6)"/><path class="cls-28" d="M-243.27,534.76a4.73,4.73,0,0,0,.67-1.3c.21-1.39.61-3.05,2.2-2.66,1.93.48.61,2.09.41,3.26-.15.81-.21,1.63-.3,2.44-1.7,1.88-.77,7-3.54,6.06-3-1,.54-4.72.55-7.3C-243.28,535.09-243.28,534.93-243.27,534.76Z" transform="translate(430.55 -304.6)"/></svg>