<svg id="Layer_1" data-name="Layer 1" xmlns="http://www.w3.org/2000/svg" viewBox="0 0 1046.14 234.52"><defs><style>.cls-1{fill:#363332;}.cls-2{fill:#fff;}.cls-16,.cls-3{fill:#e9b20f;}.cls-4{fill:#edbd36;}.cls-5{fill:#363333;}.cls-6{fill:#373433;}.cls-7{fill:#f2eee6;}.cls-8{fill:#f9f9f9;}.cls-9{fill:#f8f7f7;}.cls-10{fill:#f8f8f8;}.cls-11{fill:#f9f8f9;}.cls-12{fill:#fbfafa;}.cls-13{fill:#fafafa;}.cls-14{fill:#fbfbfb;}.cls-15{fill:#f7f7f7;}.cls-16{font-size:179.12px;stroke:#e9b20e;stroke-miterlimit:10;stroke-width:4px;font-family:Calibri-BoldItalic, Calibri;font-weight:700;font-style:italic;letter-spacing:0.03em;}</style></defs><path class="cls-1" d="M-534.69-74.12C-596-70.49-654-127.92-650.54-196.85c3-60.14,52.25-111.39,117.28-111.63,64.34-.23,119,53.63,116.07,124.27C-419.55-126.89-469.64-71.22-534.69-74.12Z" transform="translate(650.68 308.48)"/><path class="cls-2" d="M-102.72-179c3.12-7.5,6.06-14.29,8.73-21.18a2.89,2.89,0,0,1,3.25-2.19c10.49.05,21,.09,31.47,0,2.48,0,3.21.72,2.82,3.14q-4.15,25.82-8.15,51.66a5.82,5.82,0,0,1-2.88,4.32c-16.49,10.7-51.55,13.78-70-1.94A37.86,37.86,0,0,1-151-171.49c-1.64-19.6,1.71-38.55,12.3-55.38,12.89-20.49,32.61-28.15,56.13-27.29a71.53,71.53,0,0,1,22.86,4.74c2.52,1,3.48,2,1.54,5.23A63.29,63.29,0,0,0-63-234.93c-3,7.44-2.76,9.64-7.78,7.68-14.13-5.52-33.73-5.53-44.19,8.29-8.2,10.85-11.34,23-9.88,36.43.79,7.24,3.27,13.65,8.46,19.12,6.31,6.67,23.67,4.67,28.51.55,3-2.53,1.86-6.52,2.34-9.85.9-6.26.69-6.29-5.79-6.29Z" transform="translate(650.68 308.48)"/><path class="cls-2" d="M-163.82-222.91c-9.58-6.43-20.15-8.2-31.33-7.15a18,18,0,0,0-4.79,1.16c-5.5,2.15-9,6.55-8.86,10.84s3.87,8.23,9.8,9.91c10.11,2.87,19.87,6.29,28.1,13.24,18.8,15.85,12.26,44.22-6.75,54-15.08,7.76-31,7.62-47.11,5.41-7.08-1-13.94-2.76-20.16-6.57-2.91-1.78-4.31-3.39-2.34-7,2.44-4.49,4.16-9.38,6.18-14.1.87-2,2-2.63,4.21-1.48,10.61,5.52,22.06,6.93,33.85,6.62a37.78,37.78,0,0,0,8.33-1.32c4.24-1.09,7.21-3.45,7.65-8,.47-4.78-1-8.9-5.31-11.47A45.6,45.6,0,0,0-203.48-183c-7.86-2.21-15.48-5.06-21.93-10.22-13.12-10.48-14.76-26.86-4.5-42.24,8.82-13.23,21.66-18.42,37-18.64,13.16-.19,25.63,3,37.76,7.91,2.31.93,3.22,1.52,1.76,4.06C-157-235.87-160.33-229.43-163.82-222.91Z" transform="translate(650.68 308.48)"/><path class="cls-2" d="M-333.16-182.91c-.22-20.46,5.76-38.75,20.88-53,18.53-17.47,43.3-23.46,66.65-13.66,1.06.44,2.08,1,3.13,1.45,2.7,1.2,3.54,2.61,1.82,5.62-2.79,4.87-4.92,10.11-7.44,15.14-.63,1.27-.75,2.68-3.42,1.39-19.29-9.34-36.17-5.88-47.21,11.72-7.79,12.42-10.84,26.34-7.57,41,2.36,10.6,7.83,14.8,18.6,14.63,7.83-.12,15.56-1.14,22.79-4.25,3.61-1.56,4.74-.45,5.28,3,.83,5.39,2,10.73,3,16.08.27,1.36.5,2.53-1.2,3.23-17,7-34.27,9.77-51.63,2-15.73-7-21.88-20.76-23.66-37A68.91,68.91,0,0,1-333.16-182.91Z" transform="translate(650.68 308.48)"/><path class="cls-2" d="M-640.2-193.34c-1-15.75.61-31,7.06-45.7,10.87-24.76,29.34-41,54.61-49.93a20.66,20.66,0,0,0,2.15-1.09c49.14-17,102.11,17.42,112.7,65.94,11.73,53.74-24.91,103.93-76,110.68-39.41,5.21-78.76-16.84-94.57-53.28A60.58,60.58,0,0,1-638.78-184C-640.51-186.91-639.18-190.3-640.2-193.34Z" transform="translate(650.68 308.48)"/><path class="cls-3" d="M-638.46-184c6,23.68,18.37,43.07,39.39,55.86,30.34,18.47,61.7,19.54,92.35,1.21,31.76-19,45.85-48.32,43.21-84.77-3-41.35-35.2-75-76.33-80.39a86.38,86.38,0,0,0-33.09,1.9,16.44,16.44,0,0,1-3.45.15c11.63-5.62,24.09-7.37,36.77-7,39.28,1.26,68.76,19.47,87,53.9a99.28,99.28,0,0,1-12.51,110.94C-493-99.49-535.72-88-576.22-103.18-601.53-112.7-620-130.24-631.3-155c-4.25-9.28-7.44-18.77-8-29C-639-184.53-638.71-184.54-638.46-184Z" transform="translate(650.68 308.48)"/><path class="cls-4" d="M-638.46-184l-.83,0c-1.49-3-.94-6.15-.91-9.28C-638.81-190.38-639.14-187.11-638.46-184Z" transform="translate(650.68 308.48)"/><path class="cls-2" d="M52.55-220.26c-2.71-13.13-8.55-24.41-21.49-29.59-20.14-8.07-45.57-3.77-60.73,15.55C-45-214.72-51.25-192.39-47.16-167.69c2.23,13.51,8.19,25.52,21.69,30.52,20.17,7.48,39.4,4.14,55.9-9.87,17.25-14.65,23.15-34.52,23.63-56.19C53.69-209.06,53.69-214.7,52.55-220.26Zm-37.75,56a28.44,28.44,0,0,1-19.2,8.15,17,17,0,0,1-17.12-11.79c-6.66-18.72,1.45-45.53,17.35-57.31,9.69-7.18,23.14-6.74,29.82,1.29,4.65,5.59,5.86,12.45,6.05,20.64C30.86-189,26.26-175.16,14.8-164.24Z" transform="translate(650.68 308.48)"/><path class="cls-3" d="M-568.78-265.9c5.33,0,10.66.1,16,0,4.12-.11,6.49,1.63,7.56,5.66,2.13,8,4.63,16,6.67,24,.73,2.9,1.93,3.83,4.83,3.32,7-1.23,12.91,1.16,18.68,5,9.5,6.4,19.27,12.42,29,18.42,3.81,2.33,4.57,5.4,3.34,9.34-4.78,15.32-9.64,30.61-14.32,46a12.64,12.64,0,0,1-8.14,8.75c-12.79,4.64-25.64,9.12-38.44,13.73-3.62,1.3-6.32.3-8.92-2.41-9-9.38-17.94-18.76-27.17-27.88-5.44-5.37-6.73-11.71-5.21-18.7.62-2.88.16-4-2.66-4.38-1-.12-1.93-.63-2.91-.68-12-.65-18.7-7.08-22.39-18.37-3-9.12-7.48-17.75-11.53-26.5-1.89-4.1-1.4-7.11,2.24-10q12.3-9.83,24.22-20.09a20.54,20.54,0,0,1,14.63-5.22C-578.44-265.78-573.61-265.9-568.78-265.9Z" transform="translate(650.68 308.48)"/><path class="cls-1" d="M-581.92-176.87c2.18-13,4.43-26.51,6.78-40,.35-2,1.61-2.89,3.58-1.46C-560.8-210.62-550-202.9-539.3-195c2.71,2,3,5.05,2.3,8.14-3.64,15.11-7.4,30.2-11,45.34-.9,3.82-2.46,3.38-4.63,1.23-8.27-8.18-16.56-16.34-24.75-24.61C-580.38-168-581.57-172-581.92-176.87Z" transform="translate(650.68 308.48)"/><path class="cls-1" d="M-543.73-139.86l8.92-37.74c.45-1.93,1-3.84,1.34-5.8.89-5.88,4.29-8.86,10.11-9.93,10.45-1.9,20.85-4.08,31.23-6.35,4.12-.9,4.71.66,3.64,4.09-3.9,12.47-7.83,24.92-11.62,37.41a12.76,12.76,0,0,1-8.23,8.66c-10.42,3.88-20.9,7.6-31.33,11.44C-542-137.22-543.93-136.8-543.73-139.86Z" transform="translate(650.68 308.48)"/><path class="cls-5" d="M-530.31-228.84c3.17-.56,6.25.64,9.14,2.4q13.62,8.31,27.17,16.73c1.62,1,3.89,1.71,3.29,4.34-.51,2.26-2.54,2.27-4.33,2.63-10.76,2.16-21.5,4.37-32.26,6.51a12.89,12.89,0,0,1-10.4-2.16C-547.08-205-556.56-211.47-566-218c-1.58-1.11-3.71-2.12-3.19-4.57.6-2.78,3.24-2.58,5.27-2.8C-552.82-226.63-541.73-227.69-530.31-228.84Z" transform="translate(650.68 308.48)"/><path class="cls-1" d="M-606.37-233.1c6.64.36,13.28.62,19.91,1.1,7,.52,9.58,3.94,8.38,10.9-1.66,9.65-3.45,19.27-4.89,28.94-.43,2.92-1.47,3.77-4.15,2.87a10.87,10.87,0,0,0-2.4-.67c-9.82-.85-16.44-5.32-19.77-15.15-2.86-8.44-7-16.44-10.66-24.62-1.21-2.74-.8-4.07,2.62-3.72,3.63.37,7.3.36,11,.52Z" transform="translate(650.68 308.48)"/><path class="cls-1" d="M-568.88-262c4.49,0,9,0,13.47,0,.95,0,2.14-.28,2.61.9s-.36,2-1,2.61c-7.67,7.37-15.29,14.78-23.13,22-1.95,1.79-4.75,2.24-7.52,2.1-10.28-.5-20.56-.94-30.84-1.47-1.26-.07-2.92.35-3.6-1.11s.87-2.39,1.8-3.14q10.43-8.44,21-16.69A25.34,25.34,0,0,1-579.86-262C-576.2-262-572.54-262-568.88-262Z" transform="translate(650.68 308.48)"/><path class="cls-6" d="M-571.44-228.22c-3.61,1.59-4.37-.1-3.8-3.31a11,11,0,0,1,3.61-5.8c6.39-6.27,12.9-12.4,19.25-18.7,2.49-2.46,4-2.67,5,1.16q2.63,9.81,5.62,19.52c.83,2.65,0,3.63-2.57,3.91-6.58.73-13.15,1.53-19.72,2.3C-566.83-231.34-569.33-231.31-571.44-228.22Z" transform="translate(650.68 308.48)"/><path class="cls-7" d="M-571.44-228.22a4.22,4.22,0,0,1,3.87-4.43c1.82-.19,3.29,1.37,3.51,3.51Z" transform="translate(650.68 308.48)"/><path class="cls-8" d="M-564.76-203.84c-.59,2.46-.42,5.73-4,5.86-3.24.12-4-2.66-4-5.17s.34-5.92,3.55-6.22S-565.35-206.44-564.76-203.84Z" transform="translate(650.68 308.48)"/><path class="cls-9" d="M-547.37-171.67c-.61,2.2-.67,5.47-3.73,5.45-3.58,0-4-3.42-4.16-6.23s1.06-5.34,3.92-5.29C-548-177.68-547.75-174.47-547.37-171.67Z" transform="translate(650.68 308.48)"/><path class="cls-10" d="M-550.38-155.85c-.71,2.06-.4,5.63-3.94,5.46-3-.15-3.94-3.07-4-5.89,0-2.66.79-5.46,3.63-5.58C-551.38-162-550.78-158.91-550.38-155.85Z" transform="translate(650.68 308.48)"/><path class="cls-8" d="M-567.24-188.59c-.13,2.85-.77,5.81-3.68,5.77-3.42-.05-4.17-3.34-4.16-6.21,0-2.53.94-5.25,3.94-5.16C-567.73-194.09-567.45-191.06-567.24-188.59Z" transform="translate(650.68 308.48)"/><path class="cls-11" d="M-544.49-188.12c-.38,2.58-.93,5.53-3.83,5.6-3.27.08-3.85-3-4-5.7-.23-2.9.59-5.63,3.89-5.7C-544.77-194-545.31-190.42-544.49-188.12Z" transform="translate(650.68 308.48)"/><path class="cls-12" d="M-569.72-174.77c-.29,3-.44,6.25-3.86,6.31-2.89.05-3.8-2.65-3.88-5.38-.1-2.88.38-5.84,3.7-6C-570.64-180-570.29-176.89-569.72-174.77Z" transform="translate(650.68 308.48)"/><path class="cls-13" d="M-504.65-185.83c.44-4.38,1.95-7.4,6.09-7.77,2.59-.23,3.62,1.57,3.51,4.14-.18,4.08-3.2,7.59-6.55,7.24C-504-182.47-504.61-184.29-504.65-185.83Z" transform="translate(650.68 308.48)"/><path class="cls-13" d="M-527-153.53c-.57,3.74-2.55,6.29-6.23,6.73-2.67.31-3.68-1.6-3.48-4.19.29-3.69,3.48-7.3,6.39-7.07S-527.16-155.68-527-153.53Z" transform="translate(650.68 308.48)"/><path class="cls-14" d="M-502.81-161c-.16,3.73-3.84,7.6-6.59,7.17s-3.37-2.55-3.05-4.76c.51-3.5,2.25-6.37,6.21-6.5C-503.45-165.16-503-162.8-502.81-161Z" transform="translate(650.68 308.48)"/><path class="cls-14" d="M-520.16-181.65c-1,2.59-2.36,5.7-6.35,5.68-2.68,0-3.47-1.89-3.07-4.46.61-3.94,3.68-7.22,6.55-6.76C-521.12-186.89-519.81-184.71-520.16-181.65Z" transform="translate(650.68 308.48)"/><path class="cls-11" d="M-552.52-216.83c-3.1-.13-6.78-.11-7.45-3.6-.54-2.88,2.74-2.7,4.77-2.7,3,0,6.71.39,7.42,3.56C-547.16-216.79-550.53-217.09-552.52-216.83Z" transform="translate(650.68 308.48)"/><path class="cls-10" d="M-505.88-211.22c3.16.16,6.83.25,7.31,3.78.36,2.72-2.94,2.57-5,2.53-2.94-.05-6.61-.26-7.09-3.75C-511-211.67-507.68-210.84-505.88-211.22Z" transform="translate(650.68 308.48)"/><path class="cls-13" d="M-530.13-202c-3.22-.53-6.75-.86-7-4s3.26-2.67,5.3-2.42c2.55.31,6.4-.26,6.53,3.62C-525.17-201.42-528.52-202.5-530.13-202Z" transform="translate(650.68 308.48)"/><path class="cls-13" d="M-528.65-210.83c-3.18-.4-6.85-.63-6.91-3.91-.06-3.52,3.7-2.27,5.9-2.38,2.73-.14,6,.78,6.09,3.7C-523.46-210.33-526.94-211.29-528.65-210.83Z" transform="translate(650.68 308.48)"/><path class="cls-8" d="M-529.86-225.28c3.44.23,7.07.35,7.67,3.7.44,2.45-2.74,2.73-4.82,2.63-2.92-.13-6.61-.15-7.17-3.68C-534.69-225.87-531.09-224.4-529.86-225.28Z" transform="translate(650.68 308.48)"/><path class="cls-8" d="M-594.37-199.1c.33,2.46-.92,3.57-2.48,3.49-3.49-.17-5.18-2.64-5.85-5.79a2.21,2.21,0,0,1,2.45-2.91C-596.79-204.07-595.25-201.57-594.37-199.1Z" transform="translate(650.68 308.48)"/><path class="cls-15" d="M-582.58-219.2c-.16,2.6-1.89,3-3.54,2.65-3.12-.64-4.72-3-4.92-6a2.28,2.28,0,0,1,3-2.43A6.61,6.61,0,0,1-582.58-219.2Z" transform="translate(650.68 308.48)"/><path class="cls-15" d="M-586.61-245.8c-1.66-.16-3.76.1-3.56-2,.36-3.65,3.65-4.29,6.46-5.08,1.49-.41,3.55,0,3.3,1.85C-580.87-247.56-583.8-246.47-586.61-245.8Z" transform="translate(650.68 308.48)"/><path class="cls-10" d="M-555.69-244.09c.21-2.15.89-4.57,3.39-4.62,3.55-.08,4.55,3.05,4.73,5.85.14,2.18-1.18,4.59-3.64,4.57C-554.51-238.33-555.11-241.29-555.69-244.09Z" transform="translate(650.68 308.48)"/><text class="cls-16" transform="translate(726.07 173.96)">HTX</text></svg>