<svg id="Layer_1" data-name="Layer 1" xmlns="http://www.w3.org/2000/svg" viewBox="0 0 399.78 399.77"><defs><style>.cls-1{fill:#fcc115;}.cls-2{fill:#363332;}.cls-3{fill:#fff;}.cls-4{fill:#e9b20f;}.cls-5{fill:#f5ba10;}.cls-6{fill:#d9ae3a;}.cls-7{fill:#efba22;}.cls-8{fill:#f4ba10;}.cls-9{fill:#373332;}.cls-10{fill:#fcfbfa;}.cls-11{fill:#e6af13;}.cls-12{fill:#e2ad13;}.cls-13{fill:#8d7021;}.cls-14{fill:#e2ae1d;}.cls-15{fill:#fcfcfc;}.cls-16{fill:#fcfbfb;}.cls-17{fill:#fbfbfb;}.cls-18{fill:#fcfbfc;}.cls-19{fill:#2d2929;}.cls-20{fill:#2b2827;}.cls-21{fill:#fdfcfc;}.cls-22{fill:#fdfdfd;}.cls-23{fill:#fafafa;}.cls-24{fill:#fbfafb;}.cls-25{fill:#444241;}.cls-26{fill:#292625;}.cls-27{fill:#2d2a29;}.cls-28{fill:#f9f9f9;}.cls-29{fill:#2f2e35;}.cls-30{fill:#2b2928;}.cls-31{fill:#2a2827;}.cls-32{fill:#2c2928;}.cls-33{fill:#2a2b35;}</style></defs><path class="cls-1" d="M873.75,779.68A199.59,199.59,0,0,1,674.06,579.34c.16-110.43,89.54-199.5,200.1-199.43a199.6,199.6,0,0,1,199.69,200.34C1073.69,690.68,984.31,779.76,873.75,779.68Z" transform="translate(-674.06 -379.91)"/><path class="cls-2" d="M1063.87,579.62C1064,684.56,978.92,769.68,874,769.7s-190-85.05-190-190,85.18-189.93,190.12-189.83C978.87,390,1063.78,474.91,1063.87,579.62Z" transform="translate(-674.06 -379.91)"/><path class="cls-3" d="M708,577.31c-2.33-28.22,1.6-55.29,14.85-80.65,16.08-30.76,40.46-52.58,71.94-66.75.59-.27,1.15-.63,1.72-.94,3.91-1.37,7.72-3,11.59-4.5,13.43-5.07,27.58-6.72,41.67-6.58,36.81.35,69.36,12.45,97,37.31,21.92,19.74,36.73,43.75,43.43,72.46,10.61,45.45,1.06,86.79-28.19,122.87-25.72,31.73-59.49,49.32-100.53,52.63-38.57,3.12-72.85-7.88-102.68-31.93a138.64,138.64,0,0,1-45.87-67.05c-1.27-4.49-2.33-9-3.31-13.61-1.42-2.44-1-5.13-1-7.75C708.41,581,708.92,579.07,708,577.31Z" transform="translate(-674.06 -379.91)"/><path class="cls-4" d="M708.89,582.81c.48,2.54.07,5.23,1.26,7.66,1.15,4.46,1.64,9.1,3.71,13.3,5.83,16.62,13.78,32.13,25.07,45.7,23.74,28.54,53.77,46.16,90.72,51.44,31,4.42,60.72.05,87.89-15.4,52.26-29.71,78.53-75.21,74.68-135.33-3.12-48.57-27.66-85.8-69.43-110.94C889.72,419.33,854,414.81,816.5,423.3c-2.74.62-5.5,1.19-8.24,1.78-.9.34-1.29,0-1.23-.92,16.65-6.77,33.84-11.05,51.9-11.37a58.34,58.34,0,0,0,17.05,0,146.86,146.86,0,0,1,69,19.35c38.56,21.77,65,53.74,76.77,96.63,13.37,48.69,5.08,94.1-24.4,135.11-22.7,31.58-53.22,52.82-91.19,61.35-61.7,13.86-115-2.26-158.22-48.83-23.29-25.07-35.93-55.21-39.76-89.13a41.61,41.61,0,0,1,0-4.47C708.37,582.35,708.64,582.34,708.89,582.81Z" transform="translate(-674.06 -379.91)"/><path class="cls-5" d="M876,412.78a28.42,28.42,0,0,1-17.05,0A84.48,84.48,0,0,1,876,412.78Z" transform="translate(-674.06 -379.91)"/><path class="cls-6" d="M807,424.16l1.23.92c-3.8,1.67-7.51,3.58-11.75,3.89A38,38,0,0,1,807,424.16Z" transform="translate(-674.06 -379.91)"/><path class="cls-7" d="M708.89,582.81l-.8,0a12,12,0,0,1-.09-5.47C709.19,579,709,580.91,708.89,582.81Z" transform="translate(-674.06 -379.91)"/><path class="cls-4" d="M823,464.82c8.66,0,17.32,0,26,0,6.48,0,9.46,2,11.38,8.27,4,13,7.73,26.14,11.45,39.25.92,3.27,1.87,4.89,6,4,9.12-1.92,17.69,0,25.71,5.1,15.84,10.11,31.9,19.88,47.88,29.77,8.56,5.3,9.73,8.1,7,17.7q-9.81,34-19.73,68c-1.93,6.59-6,11.5-12.55,14q-31.74,11.93-63.54,23.66c-4.85,1.8-9.05.93-12.74-2.85-15.22-15.62-30.32-31.35-45.82-46.69-7.43-7.35-9.5-15.55-7.14-25.46,2-8.4,1.81-8.45-6.31-10.35-5.67-1.33-11.32-2.75-17-3.94-7.46-1.55-12.49-6-15.52-12.79q-11.7-26.18-23.26-52.42c-3.4-7.76-2.47-10.91,4.27-16.35Q758.5,488,777.92,472.31a31.61,31.61,0,0,1,21.13-7.52C807,465,815,464.82,823,464.82Z" transform="translate(-674.06 -379.91)"/><path class="cls-7" d="M713.86,603.77c-3-3.93-3.39-8.61-3.71-13.3C712,594.72,712.84,599.27,713.86,603.77Z" transform="translate(-674.06 -379.91)"/><path class="cls-8" d="M1026.35,574.58c-.35-2.4-.85-4.61.06-7.12A13.66,13.66,0,0,1,1026.35,574.58Z" transform="translate(-674.06 -379.91)"/><path class="cls-2" d="M801.89,603.33c.91-5.62,2-12.69,3.21-19.72q3.67-21.14,7.49-42.24c.92-5.06,2.07-5.56,6.06-2.77,16.11,11.23,32.15,22.55,48.25,33.79,6.56,4.58,8.52,10.76,6.67,18.34q-8.52,34.88-17.07,69.75c-.46,1.88-.46,4.32-2.7,5s-3.5-1.45-4.89-2.79L811.55,626.6C805.38,620.64,802.25,613.35,801.89,603.33Z" transform="translate(-674.06 -379.91)"/><path class="cls-2" d="M862.89,664.15c2.52-10.84,4.89-21.21,7.36-31.56,3.19-13.43,6.54-26.82,9.67-40.26,1.79-7.65,6.36-12.09,14.08-13.6,17.8-3.46,35.56-7.06,53.34-10.62,5.24-1,6.33.2,4.71,5.47-6.09,19.87-12.23,39.73-18.28,59.61a22.24,22.24,0,0,1-14.5,15.31q-25.6,9.13-51.2,18.27C865,667.89,862.77,667.82,862.89,664.15Z" transform="translate(-674.06 -379.91)"/><path class="cls-2" d="M837.25,525.93l3.73-.16c12-2.29,24.28-2.3,36.39-3.82,11.3-2.17,20.62,2.21,29.82,8.21,11.83,7.71,24.12,14.71,36.22,22,2.61,1.58,5.33,3.13,4.44,6.91-.8,3.45-3.78,3.9-6.54,4.45-16.45,3.29-32.92,6.5-49.37,9.79-7.34,1.47-14.06.65-20.4-3.84-15.06-10.67-30.28-21.11-45.5-31.56-3.32-2.28-4.88-4.89-3-8.81,1.21-2,3.46-1.54,5.25-2.17l1.64-.09C832.27,525.56,834.92,527,837.25,525.93Z" transform="translate(-674.06 -379.91)"/><path class="cls-2" d="M786,515.76c2.82.14,5.65.17,8.46.44,10.59,1,16.28,9,14.26,19.33-3,15.32-5.86,30.68-8.35,46.09-.66,4-1.88,4.45-5.43,3.43-5.73-1.66-11.62-2.83-17.46-4.08-7-1.48-12.15-5.36-15.08-11.83-7.61-16.79-15.07-33.65-22.54-50.5a15.34,15.34,0,0,1-.71-3.35c1.08-1.89,2.9-2.12,4.76-1.9,11.54,1.34,23.17.68,34.74,1.44A44.37,44.37,0,0,1,786,515.76Z" transform="translate(-674.06 -379.91)"/><path class="cls-9" d="M742.07,509.67c-1.06-2.55.41-4,2.22-5.44,11.24-8.85,22.41-17.79,33.67-26.61a40.77,40.77,0,0,1,25.45-8.81c13.48-.1,27-.13,40.44-.16,1.78,0,4-.51,4.75,1.71.68,1.88-1,3-2.19,4.12-10.77,10.39-21.6,20.74-32.33,31.17A23.4,23.4,0,0,1,804,511.8a2.93,2.93,0,0,1-2.26.51,22.16,22.16,0,0,0-9.59,0c-3.49,0-7,0-10.47,0-11-.07-22-1.51-33-1.09C746.46,511.31,744,511.23,742.07,509.67Z" transform="translate(-674.06 -379.91)"/><path class="cls-2" d="M819.18,525.17c-6.15,2.21-7.32,1.4-6.89-5.12a15.77,15.77,0,0,1,4.86-10.64q16.68-16.14,33.33-32.3c2.6-2.53,4.86-3.23,6.11,1.07,3.62,12.44,7.12,24.91,10.75,37.35,1,3.47-1.75,2.77-3.4,3.38-7.63,2.23-15.63,2.27-23.39,3.79l-.27-.15-.28.15c-1.59,1.35-3.69,0-5.34,1h-3.38c-1.71-.76-1.88-2.57-2.7-3.93-1-1.61-2.11-3.1-4.19-2.82s-3,1.85-3.67,3.59C820.16,522.08,820.08,523.76,819.18,525.17Z" transform="translate(-674.06 -379.91)"/><path class="cls-10" d="M819.18,525.17c-.35-5.89,1.39-9.76,4.88-9.73,5.2,0,6.48,4,7.22,8.28Z" transform="translate(-674.06 -379.91)"/><path class="cls-11" d="M786,515.76c-13.55-.47-27.11-.88-40.65-1.47-2.21-.1-4.27-.19-6.2,1a2.73,2.73,0,0,1,3.2-2.43c14,1.22,28,.13,41.95,2A5.87,5.87,0,0,1,786,515.76Z" transform="translate(-674.06 -379.91)"/><path class="cls-11" d="M742.07,509.67c13.23,1.87,26.61,1,39.88,2.19.27.12.41.29.39.51s-.06.35-.13.35c-12.24.63-24.4-1.79-36.65-.91A3.05,3.05,0,0,1,742.07,509.67Z" transform="translate(-674.06 -379.91)"/><path class="cls-12" d="M877.37,522c-12,2.13-24.23,2.83-36.39,3.82,4.85-3.15,10.57-2.12,15.78-2.6C863.56,522.53,870.43,521.08,877.37,522Z" transform="translate(-674.06 -379.91)"/><path class="cls-12" d="M840.55,522.7c7.66-2.11,15.55-2.83,23.39-3.8-2.36,2.89-5.84,1.78-8.79,2.25C850.33,521.91,845.52,523.22,840.55,522.7Z" transform="translate(-674.06 -379.91)"/><path class="cls-13" d="M782.21,512.72a1.91,1.91,0,0,1-.26-.86l11.12-.17a24.84,24.84,0,0,1,8.81,0l2.1.15c-1.06,1-2.12,2-3.78,1.67C794.24,512.12,788.2,513,782.21,512.72Z" transform="translate(-674.06 -379.91)"/><path class="cls-14" d="M837.25,525.93c-2.33,1.11-4.8,1-7.28.93C832.18,524.88,834.81,526.12,837.25,525.93Z" transform="translate(-674.06 -379.91)"/><path class="cls-14" d="M828.33,527l-5.25,2.17C823.92,526.19,826.24,526.86,828.33,527Z" transform="translate(-674.06 -379.91)"/><path class="cls-12" d="M834.66,523.71a8.77,8.77,0,0,1,5.34-1C838.51,524.57,836.49,523.64,834.66,523.71Z" transform="translate(-674.06 -379.91)"/><path class="cls-15" d="M857.17,612.92a34.57,34.57,0,0,1-1.15,4.75c-.88,2.26-2.36,4.18-5,4.25s-4.23-1.76-5.27-3.95a12.55,12.55,0,0,1-.84-9.19c.84-2.9,2.21-5.42,5.53-5.58s4.83,2.53,5.86,5.22A25.26,25.26,0,0,1,857.17,612.92Z" transform="translate(-674.06 -379.91)"/><path class="cls-16" d="M848.82,586.14a13.1,13.1,0,0,1,1.27-5.29c.93-2.07,2.31-3.71,4.7-3.89,2.68-.21,4.18,1.53,5.34,3.68a12,12,0,0,1,1.06,9.12c-.79,2.91-2,6-5.65,6s-5-2.78-6-5.73A32.92,32.92,0,0,1,848.82,586.14Z" transform="translate(-674.06 -379.91)"/><path class="cls-15" d="M808.77,609.15c.16-2.15.12-4.1,1.11-5.95,1.09-2,2.4-3.51,4.88-3.56s3.91,1.46,5,3.47a12.19,12.19,0,0,1,1,9.59c-.93,2.9-2.2,5.94-5.84,5.72-3.42-.2-4.84-3.09-5.77-6A15.73,15.73,0,0,1,808.77,609.15Z" transform="translate(-674.06 -379.91)"/><path class="cls-17" d="M812.75,585.51a10,10,0,0,1,1.22-5.29c2.25-4.45,6.74-4.79,9.36-.59a12.55,12.55,0,0,1,1.14,11c-.83,2.56-2.27,4.71-5.05,4.86-3,.17-4.67-2-5.8-4.64A14.6,14.6,0,0,1,812.75,585.51Z" transform="translate(-674.06 -379.91)"/><path class="cls-15" d="M822.63,552c6.14,3.07,8.39,10,5.15,15.87-2.38,4.29-6.93,4.44-9.47.31a11.28,11.28,0,0,1,4-16.18Z" transform="translate(-674.06 -379.91)"/><path class="cls-18" d="M852.3,637.71a32.85,32.85,0,0,1-1,4.64c-.88,2.43-2.27,4.63-5.16,4.74s-4.48-2-5.54-4.32a13,13,0,0,1-.52-9.24c.79-2.66,2.16-4.92,5.35-5.1,3-.18,4.51,1.84,5.49,4.23A35.76,35.76,0,0,1,852.3,637.71Z" transform="translate(-674.06 -379.91)"/><ellipse class="cls-19" cx="152.43" cy="206.37" rx="0.33" ry="4.87"/><path class="cls-20" d="M822.63,552h-.3c-.32-.09-.83-.08-.92-.28-.83-1.65.77-.5,1.06-.9.29.4,1.88-.76,1.08.89C823.46,551.9,823,551.9,822.63,552Z" transform="translate(-674.06 -379.91)"/><path class="cls-15" d="M890.06,640.18c.12,6.24-4.95,12.54-9.8,12.7-4.29.15-5.79-2.72-6-6.35-.29-5.45,5-11.67,9.88-11.9C888.57,634.41,889.75,637.24,890.06,640.18Z" transform="translate(-674.06 -379.91)"/><path class="cls-21" d="M923.08,623.41c3.73-.1,5.43,2,5.81,5.45.59,5.44-4,11.86-9.18,12.65-3.64.56-5.63-1.25-6.39-4.69C912.05,631,917.48,623.57,923.08,623.41Z" transform="translate(-674.06 -379.91)"/><path class="cls-15" d="M941.57,584c-.15,6.51-5.43,12.33-10.41,12.13-4.15-.18-5.25-3-5.29-6.46-.07-5.69,5.28-12,10.12-11.8C940.23,578,941.52,580.87,941.57,584Z" transform="translate(-674.06 -379.91)"/><path class="cls-22" d="M901.26,594.66c-.12,5.77-5.41,11.63-10.38,11.49-4.16-.12-5.34-3-5.46-6.37-.2-5.45,5.38-11.81,10.15-11.89C899,587.83,901.34,590.66,901.26,594.66Z" transform="translate(-674.06 -379.91)"/><path class="cls-23" d="M888.83,555.13c.81.55,1.67,1,2.42,1.65,1.28,1,2.77,2.12,2.11,4.07a4.68,4.68,0,0,1-3.75,2.92,18.35,18.35,0,0,1-13.48-1.84c-3.25-1.82-4.23-4.13-1.15-7C879.64,552.48,884.25,552.82,888.83,555.13Z" transform="translate(-674.06 -379.91)"/><path class="cls-23" d="M845,530.54c3.75.08,7.26.87,10.17,3.32,2.67,2.24,2.32,4.71-.93,6-5.1,2.09-10,1-14.75-1.38-1.63-.84-3.22-2.17-2.84-4.22s2-2.94,3.93-3.27C842.06,530.77,843.54,530.7,845,530.54Z" transform="translate(-674.06 -379.91)"/><path class="cls-23" d="M888.66,527c2,.73,4,1.34,5.93,2.22s4,2.06,3.58,4.63-2.76,3-4.86,3.4c-1.43.28-2.9.36-4.35.53-.6.58-1.18.75-1.69-.1-1.7-.63-3.46-1.14-5.1-1.91-2.1-1-4.58-2.07-4.13-4.9.4-2.47,2.81-3,5-3.42,1.3-.24,2.62-.36,3.93-.53C887.54,526.29,888.12,526.17,888.66,527Z" transform="translate(-674.06 -379.91)"/><path class="cls-24" d="M924.27,549.5a16.33,16.33,0,0,1,9.39,2.69c1.4,1,2.7,2.18,2.3,4-.33,1.54-1.65,2.39-3.16,2.85a17.57,17.57,0,0,1-13.86-1.53c-1.75-.93-3.65-2.17-3.14-4.5s2.44-3,4.52-3.23C921.63,549.65,923,549.6,924.27,549.5Z" transform="translate(-674.06 -379.91)"/><path class="cls-17" d="M882,549.81a6.26,6.26,0,0,0-.82-.56c-2.5-1.23-6.1-2.23-5.4-5.54.77-3.69,4.7-3.65,7.85-3.77a17.06,17.06,0,0,1,9.06,2.26c3.38,1.92,4.7,4.23,1.19,7.3C889.92,551.5,885.94,550.91,882,549.81Z" transform="translate(-674.06 -379.91)"/><path class="cls-25" d="M882,549.81c4,.25,7.94.65,11.88-.31C890,552.86,886,552.42,882,549.81Z" transform="translate(-674.06 -379.91)"/><path class="cls-25" d="M888.83,555.13c-4.6-1.09-9.2-1.7-13.85-.24C879.4,551.8,884.1,551.88,888.83,555.13Z" transform="translate(-674.06 -379.91)"/><path class="cls-26" d="M887.27,537.65l1.69.1c-1.39,1.64-3.12,1-4.91.84C884.94,537.3,886.28,538.13,887.27,537.65Z" transform="translate(-674.06 -379.91)"/><path class="cls-27" d="M888.66,527l-1.72-.08c1-1.42,2.44-1.16,3.93-.83C890.46,527.3,889.33,526.57,888.66,527Z" transform="translate(-674.06 -379.91)"/><path class="cls-28" d="M772.35,560.57c4.42.11,9.68,5.67,9.4,10-.17,2.78-1.72,4.21-4.52,4.14-4.32-.1-9.58-5.77-9.38-10.07C768,561.78,769.56,560.51,772.35,560.57Z" transform="translate(-674.06 -379.91)"/><path class="cls-24" d="M791.69,527c3.71,1.65,7.11,3.71,8.36,7.89.57,1.9.85,4-.94,5.54-1.57,1.36-3.48,1.09-5.19.47a11.21,11.21,0,0,1-7.23-8.23c-.74-3,1-4.65,3.55-5.69C790.74,526.22,791.22,526.18,791.69,527Z" transform="translate(-674.06 -379.91)"/><path class="cls-29" d="M772,517.09h15.71v.41H772Z" transform="translate(-674.06 -379.91)"/><path class="cls-30" d="M791.69,527l-1.45,0-1.21-.62a3.17,3.17,0,0,1,3.9.06Z" transform="translate(-674.06 -379.91)"/><path class="cls-31" d="M785.48,533.05c-.72-1.1-.7-2.76-.24-2.88,1.29-.34.47,1,.63,1.52C786,532,785.65,532.5,785.48,533.05Z" transform="translate(-674.06 -379.91)"/><path class="cls-32" d="M766.62,566.72a2.45,2.45,0,0,1-.16-3.05C767.37,564.66,766.76,565.71,766.62,566.72Z" transform="translate(-674.06 -379.91)"/><path class="cls-24" d="M792.71,494.7c-1.79-.08-3.41-.39-4.32-2.05s.05-2.92,1-4.06a13.35,13.35,0,0,1,11.26-5.2c3.64.11,4.91,2.78,2.67,5.7A14.91,14.91,0,0,1,792.71,494.7Z" transform="translate(-674.06 -379.91)"/><path class="cls-33" d="M801.88,511.65l-8.81,0A10.3,10.3,0,0,1,801.88,511.65Z" transform="translate(-674.06 -379.91)"/><path class="cls-23" d="M856.62,499.1c0,4.2-2.43,7.52-5.56,7.53-3.5,0-6.83-4.3-6.94-9-.1-4.28,2.64-7.9,5.9-7.78C853.49,490,856.59,494.34,856.62,499.1Z" transform="translate(-674.06 -379.91)"/></svg>