<svg id="Layer_1" data-name="Layer 1" xmlns="http://www.w3.org/2000/svg" viewBox="0 0 399.34 399.45"><defs><style>.cls-1{fill:#674021;}.cls-2{fill:#d18410;}.cls-3{fill:#643e21;}.cls-4{fill:#613c21;}.cls-5{fill:#d5880f;}.cls-6{fill:#d88b0c;}.cls-7{fill:#d88a0c;}.cls-8{fill:#59280f;}.cls-9{fill:#db8d0e;}.cls-10{fill:#de900d;}.cls-11{fill:#e2930c;}.cls-12{fill:#f8aa18;}.cls-13{fill:#de900e;}.cls-14{fill:#ef9d0c;}.cls-15{fill:#e6960b;}.cls-16{fill:#e9990a;}.cls-17{fill:#f19f0d;}.cls-18{fill:#f4a20a;}.cls-19{fill:#e6960c;}.cls-20{fill:#f7a50f;}.cls-21{fill:#f6a40f;}.cls-22{fill:#e99909;}.cls-23{fill:#f7a510;}.cls-24{fill:#f7a715;}.cls-25{fill:#e0920c;}.cls-26{fill:#e8980a;}.cls-27{fill:#e2940c;}.cls-28{fill:#f7a816;}.cls-29{fill:#eb9a09;}.cls-30{fill:#f7a918;}.cls-31{fill:#df910d;}.cls-32{fill:#ee9d0c;}.cls-33{fill:#f7a614;}.cls-34{fill:#5e3a22;}.cls-35{fill:#5d3a22;}.cls-36{fill:#df920d;}.cls-37{fill:#e6970b;}.cls-38{fill:#e5950c;}.cls-39{fill:#fab31a;}.cls-40{fill:#e4950c;}.cls-41{fill:#eb9a08;}.cls-42{fill:#e7970b;}.cls-43{fill:#f7a815;}.cls-44{fill:#f9af18;}.cls-45{fill:#e5960c;}.cls-46{fill:#f3a20b;}.cls-47{fill:#f8ae18;}</style></defs><path class="cls-1" d="M-792.23,152.45C-792.46,43.31-703-46.26-593.37-46.67c108.31-.4,200.26,86.4,200.48,199.05.23,111.63-88.36,199.28-197.7,200.39C-704.06,353.92-793,261.91-792.23,152.45Z" transform="translate(792.23 46.67)"/><path class="cls-2" d="M-406.35,152.88c.49,103.07-84.3,188.28-189.54,186.46C-696.24,337.6-779.48,256.47-779,151.89A185.6,185.6,0,0,1-592.65-33.35,185.85,185.85,0,0,1-406.35,152.88Z" transform="translate(792.23 46.67)"/><path class="cls-3" d="M-610,340.34h33.33v.49h-33.53Z" transform="translate(792.23 46.67)"/><path class="cls-4" d="M-404.72,152.32v16.74h-.42V152.33Z" transform="translate(792.23 46.67)"/><path class="cls-5" d="M-413.55,156.5c-1.28,41.33-14.94,78.82-41,110.51-24.83,30.2-57.16,51.31-95.73,59.86-57,12.63-109.49,1.54-155.42-35.3-33.3-26.71-53.45-61.86-62-103.49-8.84-42.91-2.74-84.14,18.81-122C-722,18.75-681.27-11.69-627.75-22.21c55.32-10.87,106.39,2,149.59,38S-413.55,99.57-413.55,156.5Z" transform="translate(792.23 46.67)"/><path class="cls-6" d="M-425.46,115.32c2.68,3.18,2.27,7.38,2.75,11,1.22,9.12,0,18.51,2.52,27.53.55,2-1.15,2.87-1.23,4.6-.47,9.63-.55,19.32-2.58,28.8-.78,3.65-2.06,7.19-2.94,10.83a149.12,149.12,0,0,1-13,33.66c-2.86,5.52-5.13,11.57-9,16.25-2.9,3.47-5.05,7.46-8.25,10.76-3.75,3.88-6.89,8.38-10.53,12.45-3.94,4.4-7.7,8.65-12.82,12-5.67,3.72-10.31,9-16.27,12.55-8.06,4.75-16.35,9-24.7,13.23-9.49,4.8-19.45,6.8-29.22,10.07-10.42,3.47-21.11,3.43-31.62,5.19-9.44,1.58-18.52-.12-27.65-.43a86.78,86.78,0,0,1-18.31-2.7c-5.35-1.36-10.81-2.81-16.21-4.09-7.18-1.71-14.1-4.86-20.83-8-11.09-5.22-21.45-11.88-31.55-18.73-10.37-7-18.81-16.62-27.1-25.86-6.74-7.51-12.38-16.33-17.33-25.42-4.07-7.47-7.22-15.26-10.69-22.94a120,120,0,0,1-6.33-18.69c-2.31-8.59-4.76-17.33-4.69-26.51,0-5.36-2-10.61-1.5-16.1,1-9.55.31-19.28,2.93-28.64.9-3.22-.56-6.72,1.38-9.75a1,1,0,0,1,1.43.23,29.59,29.59,0,0,1,1.52,10.22,79.16,79.16,0,0,0-.59,23.3c.64,4.87-.9,9.67-.32,14.43,2.54,21,6.36,41.65,16.47,60.65,4.36,8.18,7.9,16.76,13.9,24,10.34,12.54,20.51,25,33.82,34.88a201.78,201.78,0,0,0,33,20.07c6.11,2.94,12.28,6.84,19.64,6.47a5.93,5.93,0,0,1,2.34.61c4.69,2.32,4.67,2.26,5.46-3.23.29-2-1-5.44,3.31-4.88.7,1.41.13,2.88.24,4.33s-.06,2.9,0,4.34c.29,3.09,2.78,3.69,5,3.9,13.66,1.31,27.2,4.27,41,3.65,4.08-.18,8-1.85,12.1-2.49,6.72-1.05,13.55-.9,20.2-2.35,3.24-.17,5.21-3,8.14-3.88,7.56-1.92,14.65-4.94,21.78-8.13a166.1,166.1,0,0,0,23.36-13.1,148.56,148.56,0,0,0,33-29.83c8.53-10.31,15.26-21.94,21.46-33.92,9.16-17.69,13.72-36.45,16.07-56,1.56-13,1.06-26.07.71-39.13.87-4.82-.54-9.8,1.05-14.55C-425.85,115.71-425.66,115.51-425.46,115.32Z" transform="translate(792.23 46.67)"/><path class="cls-6" d="M-727.3,48.35l1-1c.8-1.47,2.09-2.59,3-4a73,73,0,0,1,19-19l1-1a20.07,20.07,0,0,1,6-5h0c3.6-4.29,9-6.23,13-10l2-1c6-3,11.5-7,18-9h1c2.31-2,5.19-3,8-4l3-1a156,156,0,0,1,41-10c6.34-2.74,13.09-3.13,19.78-2.71,8.39.52,16.71,2.08,25.06,3,12.12,1.27,23.44,5.26,34.9,8.81,4.2,1.29,8.14,3.43,12.15,5.29,6.6,3.05,12.67,7,18.86,10.77a145.13,145.13,0,0,1,24.32,18.26c9.43,8.93,18.65,18.34,25.61,29.27C-445.24,64.59-438.49,72.65-436,83c.73,3.07,2.41,6,3.77,8.75,3.73,7.54,4.57,15.74,6.8,23.61a7.48,7.48,0,0,0-1.48,2.16c-1.11,1-1.83,3-3.91,1.5-1.48-8.81-3.08-17.51-7.33-25.63-3.2-6.12-5.23-12.85-8.61-18.94a161.71,161.71,0,0,0-26.47-36c-5.51-5.54-10.63-11.63-17-16-12.64-8.74-25.08-17.76-40.11-22.66-5.87-1.92-11.8-4.14-17.67-6.32A94.32,94.32,0,0,0-580.84-12c-12.66,0-25.38,0-38.11,1.65C-639.82-7.66-658.66,0-676.7,10.14c-7.93,4.45-16,9.18-22.4,15.47-8,7.8-16.3,15.24-23.32,24.17-8.74,11.12-15.37,23.35-21.48,35.78-3.33,6.78-6.65,14-7.74,21.87a13.27,13.27,0,0,1-1.65,5.21c-1.06,1.68-2.43,3.48-4.58,1-.6-3.62.63-7,1.58-10.34h0a207.84,207.84,0,0,1,9.93-24.87A155.54,155.54,0,0,1-727.3,48.35Z" transform="translate(792.23 46.67)"/><path class="cls-7" d="M-727.3,48.35c-.25,4.74-4.44,7.12-6.58,10.73-5.23,8.78-10.51,17.44-14.71,26.84-2.59,5.78-3,12.59-7.7,17.41-.45-5.62,2.41-10.42,4.36-15.27a151.21,151.21,0,0,1,20.41-36.45A11.68,11.68,0,0,1-727.3,48.35Z" transform="translate(792.23 46.67)"/><path class="cls-7" d="M-611.36-16.61c-8.62,1.94-17.27,3.75-25.85,5.85-5.07,1.25-9.92,3.37-15.13,4.14,3.23-4.17,8.49-4.15,12.83-5.54a136.45,136.45,0,0,1,25.34-5.27C-613.28-17.54-612.3-16.9-611.36-16.61Z" transform="translate(792.23 46.67)"/><path class="cls-7" d="M-704.31,24.37l-19,19c-.55-3.61,2.54-5.44,4.39-7.33C-714.56,31.6-711.34,25.5-704.31,24.37Z" transform="translate(792.23 46.67)"/><path class="cls-7" d="M-664.33-1.62c-5.63,3.74-11.44,7.12-18,9C-677,3.07-671.82-1.6-664.33-1.62Z" transform="translate(792.23 46.67)"/><path class="cls-7" d="M-684.32,8.38c-.39.87-.58,2.32-1.2,2.53-4.55,1.56-7.45,5.65-11.8,7.46C-694.33,13.29-689.6,10.48-684.32,8.38Z" transform="translate(792.23 46.67)"/><path class="cls-7" d="M-756.29,103.33l-1,11a2.21,2.21,0,0,1-.67,1.33,2.16,2.16,0,0,1-1.33.67h-1C-758.39,112.16-759.9,107-756.29,103.33Z" transform="translate(792.23 46.67)"/><path class="cls-7" d="M-655.34-5.62c-1.84,3-5.14,3-8,4C-661.84-5.29-659.26-6.8-655.34-5.62Z" transform="translate(792.23 46.67)"/><path class="cls-7" d="M-697.32,18.37c-1.61,2.13-3,4.53-6,5C-703.38,19.23-700.89,18.15-697.32,18.37Z" transform="translate(792.23 46.67)"/><path class="cls-7" d="M-723.3,43.36c-.08,2-1.4,3.12-3,4C-727.6,44.3-725,44.18-723.3,43.36Z" transform="translate(792.23 46.67)"/><path class="cls-1" d="M-543.52,311c-2.58,1.39-3.77,5.41-7.78,4.07-2.49-3.1-.89-7.45-3.24-10.59a8.61,8.61,0,0,0-1.6-1.14c-2.47-1.42-4.18-3.89-6.92-4.93-2.36-1.22-4.07-3.45-6.71-4.22-3.35-1.17-4.9-4.79-8.21-6-5.12-3.54-10-7.42-15.37-10.63a1.16,1.16,0,0,1,.33-1.69c-8.4-3-14.15-9.71-20.9-15-1.48-1.16-3.2-1.66-4.76-2.55-5.83-6.56-12.39-12.39-18.53-18.63-2.31-2.34-3.8-.45-5.19,1.33-3.12,4-6.48,7.63-12.15,7.58-2.35,0-4.64-.15-6.63-1.56a4.1,4.1,0,0,1-2-4.22c.34-2,1.9-2.52,3.62-2.77s3.3,0,4.88-.53c4.26-2.9,5.23-6.78,2.82-11.46a14.43,14.43,0,0,0-7.54-6.83c-4.16-1.92-8.21-1.22-12.23.5a7.17,7.17,0,0,1-1.35.39c-6.14-2-11.26-5.76-16.19-9.8a81.94,81.94,0,0,0-12.44-9.41,73.52,73.52,0,0,0-9.22-7c-4.18-3.48-8.63-6.59-12.94-9.9-2-1.82-4.31-3.17-6.13-5.16-2.86-2.76-6.28-4.88-8.89-7.92a56.62,56.62,0,0,1-4-4.33,15.48,15.48,0,0,0-4.31-4.7,5.38,5.38,0,0,1-1.2-1.64c-1.32-3.26-3.53-6.05-5-9.22-1.65-4.27-3.92-8.33-4.29-13a26.57,26.57,0,0,0-.63-6.41c-.3-4.4.91-8.78,0-13.2a3,3,0,0,1,1.33-3.44c2.2-.59,3.33,1.06,4.68,2.24,1.4,1.51,2.82,3,4.32,4.44.49.45,1,.93,1.44,1.41,2.52,2.5,5,5.07,7.6,7.45,1.71,1.28,3,3.08,4.81,4.21,1.35,1.05,2.82,1.94,4.18,3a36.3,36.3,0,0,0,5.79,4,25,25,0,0,1,5.21,3.88c1,.82,2.16,1.48,3.18,2.29,3.18,2.4,6.48,4.64,9.74,6.92s6.53,5,10.09,7.07c12.13,9.07,25.31,16.62,37.45,25.67,7.07,5.27,14.13,10.56,20.8,16.33,1.76,1.53,3.16,4.44,6.22,2.7,3.66-2.08,8.27-3.32,8.68-8.68.09-1.15-.38-2.45.24-3.44.84-1.34,2-3.17,3,0-.86,1.77-.26,3.59-.35,4.2.27,1.85.92.78.36,1.14-.25.16-.41.08-.41-.25a23.35,23.35,0,0,1,.16-4.8c4.62.45,7.67,6.36,5.61,11a17.45,17.45,0,0,1-5.36,6.49c-2.55,2-2.93,3.71.33,5.61,9.36,5.42,18.25,11.63,27.69,16.92,7,6,15.32,10.32,22.09,16.66,1,1,2.39,1.05,3.62,1.47a13.31,13.31,0,0,0,3.9,4.9c2.42,2.45,5.51,4.14,7.76,6.78.79.8,1.58,1.61,2.4,2.39,1.94,2.26,4.56,3.71,6.71,5.71,1.59,1.61,3.18,3.23,4.79,4.82.49.46,1,.94,1.42,1.41,1.07,1.11,2.2,2.11,3.87,2.14.93,0,1.86,0,2.8,0,.51,0,1,0,1.51,0,2.33.13,4.74-.38,6.94.83,1.38,1.34,1.05,2.79.28,4.26-1.54,2.08-3.09,4.16-4.44,6.37a19.64,19.64,0,0,0-1.93,2.86C-530.14,306-536.82,308.5-543.52,311Z" transform="translate(792.23 46.67)"/><path class="cls-8" d="M-618.6,258.09c5.19-1.29,7,3.68,10,5.9,5,3.65,9.78,7.62,14.92,11.1,1,.67.51,1.35.29,2.09.11,2.87-2.52,3.5-4.16,4.8-2.66,2.12-5.61,3.85-8.41,5.79-3.22,1.71-5.88,4.27-9.05,6.08-2.26,1-3.77,3.13-5.91,4.34-3.47,1-5.64,4.59-9.49,4.87-3.7,1.74-1.72,5.27-2.35,7.92-1.36,5.68-1.15,5.73-5.69,2a24,24,0,0,0-2.89-1.84c-7-2.29-12.52-5.89-13.36-14a18.37,18.37,0,0,0-2.21-3.38,14.82,14.82,0,0,0-3.54-3.95,4.78,4.78,0,0,1-1.85-3.15,3.32,3.32,0,0,1,1.06-2.9c2.23-1.26,4.67-.75,7-.87,2.83.1,5.69.32,7.89-2,3.57-3.55,7.89-6.26,11.22-10.08a61.2,61.2,0,0,1,4.51-4.16c2.55-1.56,4.47-3.84,6.57-5.9C-622.4,259.42-621,257.71-618.6,258.09Z" transform="translate(792.23 46.67)"/><path class="cls-9" d="M-654.22,295.94c1.46,6.46,4.86,11.21,11.47,13.27.62.19,1,1.26,1.44,1.92-2.88,2.12-6.35.57-8.31-.49-6.4-3.48-14-4.6-19.72-8.79-8-5.85-17.22-9.6-24.83-16.37-6.94-6.17-14.81-11.42-20.89-18.54-6.49-7.61-14-14.84-18.75-23.34-7.91-14.21-15.84-28.65-19.36-45-1.78-8.33-2.91-16.79-4.79-24.92-2.55-11,.08-21.94-1.87-32.85a23,23,0,0,1,1.53-13.46c1,2,.25,4.18.5,6.26.61,2.21.37,4.6,1.45,6.71.46,4.63,3.1,8.56,4.19,13a5.58,5.58,0,0,0-1.35,4.65c2,8.95,1.13,18.27,3.37,27.16,6,23.81,14.42,46.43,30.38,65.74,6.45,7.81,12.48,15.86,20.3,22.44a176.44,176.44,0,0,0,40.38,26.1C-654.54,301.45-656,296.75-654.22,295.94Z" transform="translate(792.23 46.67)"/><path class="cls-9" d="M-543.52,311c1.66-2.05,3.42-3.68,6.32-4.13,3.23-.51,4.8-3.06,5.5-6.19.34-1.51-.44-3.37,1.28-4.5,1.26,3.39,2.78,3.91,6.49,2.27,10.45-4.61,19.57-11.26,28.75-17.76,8.51-6,16.59-13,23.08-21.08,5.78-7.21,12.16-14.15,16.66-22.31,8.39-15.22,15.56-30.91,19-48.17,2-10.27,4.61-20.41,4-31-.12-2.22,1.38-3.68,2.06-5.51-.76.58-.62,2.62-2.43,1.5-1.14-4.76,2.66-8.11,3.49-12.32,2.17-3.16.5-7.39,2.89-10.49,1.51,1.31,1.05,3.11.93,4.68-.56,7.53-.52,15.16-.46,22.61.11,11.83-2.14,23.12-4.6,34.41a130.53,130.53,0,0,1-14.94,38.13c-2.45,4.23-4.74,8.83-7.25,13.1a108.26,108.26,0,0,1-12.48,17.09c-6.47,7.23-13.06,14.59-20.7,20.46-5.75,4.42-11.84,8.67-18,12.73-7.28,4.82-15.29,8-22.9,11.92C-531.7,309-537.29,312-543.52,311Z" transform="translate(792.23 46.67)"/><path class="cls-10" d="M-555.42,302.31l1.12.55c2,1.8,1.43,4.32,1.65,6.53s-1.58,2.53-3.32,2.92c-15.32,3.41-30.82,3.73-46.43,3.52-9.84-.13-19.23-3-29-3.62v-5c1-3.6,3.42-4.53,6.86-3.75a146.4,146.4,0,0,0,27.69,3.34,120.66,120.66,0,0,0,32.61-2.92C-561.28,303.17-558.24,303.43-555.42,302.31Z" transform="translate(792.23 46.67)"/><path class="cls-11" d="M-555.42,302.31c-4.84,3.1-10.39,3.64-15.87,4.44s-11.08.53-16.63,1.28c-9.64,1.31-19.18-.93-28.74-2-3.34-.37-6.66-1.09-10-1.77-2.59-.54-3.32,1.69-4.73,2.93.32-1.38.65-2.77,1-4.15,2.79-2.27,5.56-4.57,9-5.77,4.35,2,9.08,1.73,13.65,2a180.57,180.57,0,0,0,29.69,0c5.19-.5,10.3-1.85,15.57-1.91C-559.57,298.29-557.88,300.85-555.42,302.31Z" transform="translate(792.23 46.67)"/><path class="cls-9" d="M-631.35,312.21c2.19-1.18,4.08-1,6.75-.56,9,1.61,18.14,3.75,27.49,2.68,4.58-.52,9.2,0,13.78.05a92.32,92.32,0,0,0,23.66-3.28c.16,0,.3-.17.46-.19,1.85-.3,4.34,1.5,5.45-.78s.37-4.89-.54-7.27c3.68,3.41,2.54,8,3,12.2-2.61,2.67-6,.77-8.76,1.45-7.12,1.75-14.57,1.06-21.63,3.89-3.79,1.51-8.72.58-13,.31-9.81-.63-19.59-2.09-29.31-3.62C-626.9,316.64-631.1,317.09-631.35,312.21Z" transform="translate(792.23 46.67)"/><path class="cls-5" d="M-426.43,131.32c-.13,3.75.55,7.64-1.89,11-1.5-1.24-1.32-2.92-1.15-4.58.7-7.08.8-14.21,2.06-21.23a1.87,1.87,0,0,1,2-1.18C-425.92,120.64-424.41,126.09-426.43,131.32Z" transform="translate(792.23 46.67)"/><path class="cls-5" d="M-758.29,134.31q0-3.5,0-7c0-3.7-1.61-7.25-1-11l1-1c2.15-.71,3.28-.14,2.92,2.31-3-.27-2,2-2,3.36,0,4.43.11,8.86.18,13.3A.74.74,0,0,1-758.29,134.31Z" transform="translate(792.23 46.67)"/><path class="cls-8" d="M-427.41,116.5c1.81,6.85-.51,13.61-.46,20.43,0,1.79-.29,3.59-.45,5.38q-2.21,6-4.42,12c.08,3.83-3.33,5.95-4.5,9.18a8.45,8.45,0,0,1-.69,1.16c-1.83,2.21-4,4.1-5.94,6.18-1.42,1.36-2.8,2.76-4.16,4.18a47,47,0,0,0-5,5.54c-1.51,1.23-3.42,1.89-4.8,3.31-.81.74-1.58,1.53-2.41,2.26-3.52,2.48-7.06,4.92-10.41,7.64-.84.74-1.64,1.54-2.49,2.28-3.31,2.29-7,4-9.87,7a188.53,188.53,0,0,0-16,12.16c-4.29,2.55-7.74,6.72-13.28,6.86-10.28-3.83-16.49-1.42-21.14,8.23a5.87,5.87,0,0,0-.16,5,6.12,6.12,0,0,0,3.87,4.4,31.44,31.44,0,0,0,4.43.4c1.93.25,3.54.92,3.84,3.13s-.78,3.76-2.88,4.58a14,14,0,0,1-5.8.84c-4.36-.42-7.66-2.7-10.44-5.94-4.15-4.83-4.24-4.9-8.76-.18-4,4.18-8.82,7.44-12.81,11.62-.84.88-1.84,2-3.39,1.17-1.39.18-2.59.74-4-.56-6.33-5.69-13.49-10.3-20.42-15.21a2.9,2.9,0,0,1-1.37-1.92c1-3,3.75-4.07,6-5.57,6-3.92,12.15-7.53,18.28-11.21,5.47-3.28,5.49-3.44.93-7.57a18.13,18.13,0,0,1-3-3.35c-3-4.41-1.55-11.67,2.87-14.52a3.14,3.14,0,0,1,3.28-.47c1.26.61,1.24,1.79,1.29,3a11.48,11.48,0,0,0,8.86,10.8c2.17.57,3.52-.59,4.88-1.78,16-13.9,33.63-25.49,51.12-37.31,2.89-2,5.84-3.82,8.65-5.89,3.83-2.46,7.34-5.37,11.18-7.81a23.2,23.2,0,0,0,3.25-2.33c3.6-2.68,7.24-5.31,11-7.82a65.64,65.64,0,0,0,7.87-6.13,25.7,25.7,0,0,0,6.65-4.61c.81-.78,1.6-1.56,2.38-2.36,2-2,4.2-3.94,5.74-6.4a10.08,10.08,0,0,1,3-2.69c.56-.36,1.15-.69,1.72-1,1.83-.84,2.91-2.77,4.9-3.37Z" transform="translate(792.23 46.67)"/><path class="cls-9" d="M-430.5,119.11a12.38,12.38,0,0,1-4.86,4.61c-.58-7.76-2.95-15.17-5.26-22.45-3.82-12-9.63-23.29-16.4-34-9.84-15.57-21.67-29.19-36.52-40.43A214.93,214.93,0,0,0-524.73,7.39,101.79,101.79,0,0,0-542,.86C-554.5-3-567-6.93-580.41-6.52c-3.76.12-7.4-1-11.26-1.11-8.86-.21-17.46,1.41-26.14,2.27-10.94,1.08-21.4,4.26-31.69,8.21a173.93,173.93,0,0,0-33.12,17,150.93,150.93,0,0,0-46,47.7c-9,14.7-16.39,30.3-19.85,47.44-.47,2.34-1.45,4.43-3.86,5.44l-3-2.85a2.73,2.73,0,0,0-2.92-2.31l1-1c5-.63,2.95-5.33,4.48-8,.28-.47-.25-1.41,0-1.88,4.52-7.68,5.65-16.68,10-24.52,3.61-6.46,7.8-12.6,11-19.34,3.28-7,9-12.24,13.77-18.23,5.11-6.49,11.38-12,17.42-17.22C-695.36,20.6-690,15.06-682.73,13c3.42-1,5.62-4.07,8.79-5.83a184.31,184.31,0,0,1,34-14.52,94.23,94.23,0,0,1,21.52-4.25c8.89-.66,17.7-1.71,26.71-1.6,10.81.14,21.59.39,32.22,2.06,8.44,1.33,16.68,4.24,24.68,7a136.42,136.42,0,0,1,30.22,14.92c11.31,7.54,22.47,15.52,31.56,26.07,6.14,7.13,12.87,13.77,18.08,21.64,4.54,6.86,9.82,13.57,12.64,21.14,4.1,11,10.17,21.34,12.06,33.22C-429.84,115.15-429.35,117.05-430.5,119.11Z" transform="translate(792.23 46.67)"/><path class="cls-12" d="M-487.44,164.26c-7.53,6-15.69,11.18-23.74,16.48a313.47,313.47,0,0,0-36.9,28.09c-2.1,1.88-3.78,2.25-6.08.64-1.9-1.34-4-2.38-5.94-3.66-2.59-1.72-3.94-4-2.88-7.24.33-1,1.16-2.32-.57-2.88-1.31-.43-2.11.53-2.91,1.44-5,5.63-4.74,9.7,1,15,6,5.5,5.93,5.44-1,9.73-8.35,5.15-16.62,10.44-24.92,15.66-3.53-.34-5.83-3-8.64-4.65-7.26-4.29-14.29-9-21.6-13.18-2.84-1.64-2.53-2.86-.55-4.68.85-.78,1.68-1.59,2.54-2.36,6.76-6.13,6.83-9.79.31-16.44h0c-2.44-1.1-2.58-.25-2.23,2.09.74,4.9-6.89,12.78-11.74,12.29a4.94,4.94,0,0,1-2.53-1.46c-17.2-15.9-37.14-28.06-56.35-41.22-1.49-1-2.82-2.27-4.23-3.41-2.1-1.69-2.44-3.84-2.6-6.51a93.65,93.65,0,0,1,5.63-37.12c4.08-11.44,8-23.17,17.28-31.87,3-2.77,3.83-7,6.62-9.89,2.39-.54,4.2.82,6,2,11.19,7.52,22.3,15.15,33.44,22.74,4,2.69,4.21,4.66,2.25,10-6.29,17.19-12.27,34.49-18.47,51.71a11.08,11.08,0,0,0-1,4.06c8.94-6.65,17.53-13,26.27-19.21q11.84-8.35,23.56-16.84c5.34-3.86,6.33-3.91,11.43,0,14.27,10.92,28.67,21.68,43,32.6,1.42,1.09,2.67,2.48,4.84,3.18-1.27-7.1-4.12-13.47-6.15-20-4-12.88-7.71-25.84-12.22-38.54-1.38-3.88-.77-6.49,2.87-8.86,10.44-6.82,20.68-14,31.22-20.64,1.93-1.22,3.83-2.79,6.42-2.13,10.12,12.11,19.09,24.55,24,40.16,4.53,14.48,5.47,28.85,5.25,43.63A2.34,2.34,0,0,1-487.44,164.26Z" transform="translate(792.23 46.67)"/><path class="cls-11" d="M-439.3,126.71c-1.05,3.14-3.72,4.79-6.11,6.7-3.37-3-2.51-7.38-3.33-11.14a26.25,26.25,0,0,0-2.05-6.55,29.15,29.15,0,0,1-3.61-11.78c-.3-5.57-3.18-10.48-5.74-15.23a180.62,180.62,0,0,0-23.65-34.24c-7.11-8-14.64-15.73-24-21.31a11.37,11.37,0,0,0-4.61-1.58c-1.67-4.62-5.45-6.35-9.87-7.2a6.07,6.07,0,0,1-1.32-.46c-2.54-3.46-6.74-4.16-10.29-5.41-6-2.14-11.58-5.51-18.1-6.63-4.42-.75-8.38-4.05-13.29-2.37A8.12,8.12,0,0,1-568,9.14c-1.49-.73-3-1.61-4.76-1.19A5.24,5.24,0,0,1-574,7.77c-4.09-1.15-8.42-.63-12.49-1.82-1.5-.43-1.92.86-2.74,1.55-2.52.16-1.85-2.11-2.48-3.23-.1,1.76-.19,3.62-2.42,4.33A2.72,2.72,0,0,1-595.4,7c-1.07-3.55-3.42-.93-5.2-1.06A6.65,6.65,0,0,1-602,6c-8.13-1-15.9,1.26-23.58,3.19-19,4.76-37.08,11.85-52.8,23.67-9.2,6.9-19.28,13.14-25.29,23.57C-711.93,67.3-721.11,77.52-725.54,91c-2,6.08-4.73,12-7,18-2.48,6.58-3.53,13.41-5,20.18-.31,1.48-.24,3-1.74,3.9a39.16,39.16,0,0,1-8-7.8c4.56-10.9,7.33-22.42,11.6-33.42,2.7-7,6.69-13.28,10.3-19.79,3.79-6.84,8.68-12.89,13.22-19.2a9.94,9.94,0,0,0,3.44-4,8,8,0,0,1,1.48-1.49c4.51-3.93,8.43-8.48,13-12.34a161.26,161.26,0,0,1,31.35-20.91,163.27,163.27,0,0,1,37-13c10.93-2.53,22-5,33.48-3.37,3,.43,6-.29,8.95-.39,8.25-.29,16.11,2.08,24,3.71C-545.55,4-532.81,9.82-520,15.82c15.37,7.18,27.89,17.66,39.54,29.3a144,144,0,0,1,25.84,35.76,162.19,162.19,0,0,1,12.51,32A88.48,88.48,0,0,1-439.3,126.71Z" transform="translate(792.23 46.67)"/><path class="cls-13" d="M-752.36,120.47c4.26-6.46,3.8-14.48,6.88-21.26,4.31-9.46,8.49-18.93,13.64-28.09,8.31-14.78,19-27.27,31.07-38.77A136.88,136.88,0,0,1-667.22,9.26c11.73-5.82,23.8-11.08,37.06-13.53C-622-5.77-613.92-6.54-605.9-8c5.7-1,11.34-.57,17-1.35,4.18-.57,8.56,1.13,13,1.39,12.14.7,23.85,4.34,35.53,7.86,15.44,4.66,29.43,12.31,42.29,21.62,13.51,9.77,25.93,21,35.44,35.05,4.24,6.3,8.62,12.5,12.1,19.22,6,11.61,12.27,23.2,13.65,36.55.22,2.05,3.41,3.12,1.77,5.69,3.2,2,.23,3.78-.23,5.64l-1.09.65c-2.78-4.62-4.18-9.81-5.4-14.93a100.69,100.69,0,0,0-12.79-31.16c-7.67-11.89-14.68-24.37-25.2-34.44a244.42,244.42,0,0,0-27.08-22.44c-5.64-4-12.32-6.29-18.39-9.68A118.19,118.19,0,0,0-547,2.8c-11.42-3.65-23.32-5-35.14-6.37-16.7-2-33.31.74-49.27,4.62-13.81,3.36-27.43,8.34-40,16.19-8.9,5.58-16.54,12.68-25.44,18.12-2.15,1.31-3.53,3.51-5.16,5.4-4.88,3.59-8.14,8.67-12,13.22-6.26,7.44-12.18,15.26-16.5,23.93-5.36,10.77-10.43,21.74-13.25,33.59-1.06,4.42-1.18,9.29-4.64,12.88A11.09,11.09,0,0,1-752.36,120.47Z" transform="translate(792.23 46.67)"/><path class="cls-14" d="M-724.47,144.64a17.7,17.7,0,0,1-5.86-4.28c2.2-14.2,5-28.37,10.76-41.48,4-9.11,9.46-17.63,15.2-26,6.67-9.73,15.72-16.79,23.13-25.54,1.73-2,4.3-3.13,5.9-5.3,4.24-1.93,7.9-4.79,11.79-7.27,3.13-1.53,6.48-2.64,9.13-5,6-1.85,11.19-5.62,17.32-7.21,7.29-1.89,14.26-4.7,21.94-5.4,4.64-.42,9.17-1.52,14-1.54,3.13,0,3.94.38,3.4,3.24-.25,1.3-.27,2.63-.4,3.95s-.43,2.5-1.94,2.88c-7.76-1.4-15.17.44-22.54,2.44-7.7,2.1-15.24,4.72-22.7,7.52-6.56,2.46-12.4,6.5-18.12,10.23-10.82,7-21,15.22-28.85,25.82-9.63,13-18.08,26.57-22.74,42.36-2.51,8.49-5.3,16.79-5.4,25.73C-720.51,142.49-721.75,144.14-724.47,144.64Z" transform="translate(792.23 46.67)"/><path class="cls-14" d="M-634.22,271.28c-3.18,3.85-7.15,6.85-10.91,10.08-20.64-10.12-39.61-22.65-54.2-40.62A150.25,150.25,0,0,1-713,220.13c-5.65-10-8.79-20.89-13.07-31.37-.56-1.36-1.41-3-.23-4.23,1-1.06,2.08.27,3.07.74a101.51,101.51,0,0,1,13.13,9.94c-1.28,2.56-.21,4.79.86,7.1,6,13,12.95,25.34,22.51,36.06,4.74,5.33,10.63,9.46,16,14.17,8.91,7.85,19.5,12.92,30.4,17.41C-638.35,270.8-636,269.79-634.22,271.28Z" transform="translate(792.23 46.67)"/><path class="cls-15" d="M-594.39,6.38l0,2a4.12,4.12,0,0,1-.73,1.27c-3.69,2.37-8,1.21-11.95,2-2.72.51-5.66-.09-8.11,1.7-2.22,1.53-4.75,1.34-7.25,1.37a9.91,9.91,0,0,0-5.36,1.18,7.37,7.37,0,0,1-1.3.44c-2.25.65-5-.53-6.75,1.94-1.26,1.23-2.95,1.45-4.52,2-3.58.78-7.67,0-10.41,3.35a8.55,8.55,0,0,1-2.4,1.45,39.81,39.81,0,0,0-12.39,6.28,6.13,6.13,0,0,1-1.07.83c-3.06,1.78-6.64,2.73-8.92,5.72a4.16,4.16,0,0,1-1.54,1.28,4.73,4.73,0,0,0-3.64,3.27A6.44,6.44,0,0,1-683.57,45c-1.11.41-2.34.62-3.15,1.63a8,8,0,0,1-.88.87,9.12,9.12,0,0,0-3.79,4.9c-6.07,6.3-12.1,12.57-17.09,19.86a156,156,0,0,0-11.19,19.33,158,158,0,0,0-10.93,30.29c-.87,3.38-1.78,6.75-1.51,10.26.17,2.27-1.39,3.63-2.22,5.38-2.33-.67-3.45-2.7-4.93-4.33.86-10,3.84-19.53,6.84-29,1.09-3.44,2.87-6.65,4.2-10,2.5-6.36,4.61-12.86,8.73-18.49,3.93-5.38,7.56-11,11.3-16.53,1-1.4,2-2.69,3.88-2.73a147.73,147.73,0,0,1,40.79-32.71,147.81,147.81,0,0,1,29.29-12c9.19-2.68,18.33-5.29,28-5.23,1.67,0,3.15-1.1,4.85-1h1C-598.35,5.59-596.14,4.63-594.39,6.38Z" transform="translate(792.23 46.67)"/><path class="cls-14" d="M-471.58,193.2a62.64,62.64,0,0,1,11.08-8.13c1.4,3.49-.2,6.61-1.11,9.85-3.41,12.15-8.31,23.68-15.82,33.81-5,6.76-9.57,13.93-15.56,19.91-7.74,7.75-16.1,14.82-25.68,20.21-4,2.27-7.51,5.31-11.66,7.4a61.17,61.17,0,0,1-10.13,4l-5.24-4.86c1.14-4,4.79-5.63,8-6.81,6.95-2.54,13-6.61,18.86-10.76,7.16-5,14.54-10,20.25-16.69A142.56,142.56,0,0,0-482.95,220c4.05-7,7.85-14.17,10.18-22A17.28,17.28,0,0,0-471.58,193.2Z" transform="translate(792.23 46.67)"/><path class="cls-13" d="M-438.3,163.3q2.79-4.52,5.56-9c1.65-.4,1.44-2.55,2.93-3.14-2.42,10.31-1.23,21-3.68,31.32-2.89,12.17-6,24.34-10.57,35.88-1.64,4.11-3.15,9.32-7.52,12.37-1.25.88-.3,3.11-1.26,4.86-3.25,5.87-7.85,10.67-11.57,16.14a108.86,108.86,0,0,1-19.3,21.11,173.72,173.72,0,0,1-22.68,17,194.19,194.19,0,0,1-17.6,9.87c-6.25,3-6.36,3.23-6.43-3.54l1.83-2.22c4,0,7.35-1.95,10.66-3.88,10.36-6,20.64-12.38,29.39-20.48a177,177,0,0,0,26.76-31.54,145.56,145.56,0,0,0,15.24-30.71c4.85-13.09,7.33-26.53,8.9-40.25C-437.49,165.81-437.19,164.41-438.3,163.3Z" transform="translate(792.23 46.67)"/><path class="cls-16" d="M-723.27,185.27c-2.68-.81-3.37.24-2,2.47,3.95,6.5,4.84,14.12,8.11,21a204.39,204.39,0,0,0,11.42,20.75c6.57,10.5,15.38,19,24.29,27.51,5.52,5.28,12.28,8.36,18.06,13.05,3.71,3,8.66,4.24,12.86,6.76a16.67,16.67,0,0,1,5.41,4.55c-1.89,3.45-4.94,3.46-8.23,2.77-2-1.62-4.75-.22-6.85-1.55-.34-1.32-.06-2.77-1.77-3.61-8.65-4.3-15.95-10.65-24-15.94-6.17-4.07-10.55-9.93-15.3-15.48-7.25-8.48-12.45-18.3-18.88-27.3a46.22,46.22,0,0,1-5.83-12.64c-2.78-8.6-6.92-16.84-7.67-26.05-.07-.83-.36-1.72.41-2.3,1.69-1.27,2.68.51,4,1Z" transform="translate(792.23 46.67)"/><path class="cls-13" d="M-654.22,295.94c0,1.16-.12,2.32-.12,3.49,0,2.71-1.32,3.28-3.48,2-9.41-5.6-19.59-9.67-28.53-16.37-11.19-8.4-22.13-17-30.52-28.15-5.36-7.13-10.51-14.49-15.43-22-6.35-9.69-10-20.37-13.75-31-4.09-11.64-7.44-23.62-7.32-36.24,0-3.42-1.11-6.83-1.39-10.26-.15-1.78-1.09-4.56,2.6-4.14,1.83,2.9,4.17,5.53,4.93,9-1.28.87-1.41,2.16-1.28,3.54a159.79,159.79,0,0,0,5.69,30.28,159.7,159.7,0,0,0,15.54,36,158.81,158.81,0,0,0,33.44,39.93c6.66,5.8,14,10.56,21.28,15.52,3.88,2.66,8.54,3.69,12.47,6.22,1.33.85,2.53-.26,3.76-.65A4.19,4.19,0,0,1-654.22,295.94Z" transform="translate(792.23 46.67)"/><path class="cls-11" d="M-661.29,287.24l1.95,2c1.18,2.92-.95,2.22-2.29,2a24.78,24.78,0,0,1-11.48-5.71,37,37,0,0,0-10.41-6.7c-4.31-1.73-6.7-5.89-10.27-8.57-10.19-7.67-18.46-17.42-25.64-27.59a144.2,144.2,0,0,1-17.37-32.75c-4.87-13-7.43-26.4-10.7-39.72-.54-2.21-.11-3.53,2-4.28,1.84-.26,2.24,1.71,3.56,2.27l3.84,4a79.74,79.74,0,0,0,4.37,22.15c3.64,10.12,6.41,20.71,12.18,29.87,8.45,13.41,17,26.65,29.25,37.38,6,5.28,13.44,8.58,18.66,14.72a3.06,3.06,0,0,0,1.77.86C-666.18,278.27-663.07,282.06-661.29,287.24Z" transform="translate(792.23 46.67)"/><path class="cls-17" d="M-724.47,144.64c3.4-1.79,3.06-5.31,3-8.09-.24-9.07,3.9-16.93,6.09-25.34,2.54-9.73,7.07-18.57,12.4-26.74,7-10.75,14.41-21.43,25-29.29,7.23-5.38,14.56-10.44,22.36-15.12,16.2-9.72,33.66-14.07,51.9-16.62,1.48-.21,3.13-.34,3.38,1.86.9,1.05.42,1.81-.53,2.46-8.94,2.34-18.27,2.51-27.16,5.58-13.38,4.63-26.44,9.61-37.29,19-3.38,2.94-7.92,4.16-11,7.56-1.23,1.38-3.59,2.08-2.79,4.64,6.18.91,12.35.16,18.51.34,12.79,0,25.57,0,38.34,0,2.14,0,4.34-.31,6.31.9,1.33,1.56-.09,2-1.1,2.4-1.89.73-3.92.57-5.91.57-17.42,0-34.85,0-52.27.07-1.66,0-4.23-1.35-4.8,1.87-.17,1-.89,1.13-1.68,1.21-3.31-1.49-5.5-.09-7.59,2.52A126.12,126.12,0,0,0-717.09,143c-.18,2-.26,4-2.22,5.26Z" transform="translate(792.23 46.67)"/><path class="cls-18" d="M-634.22,271.28c-5.68,2.21-10.14-1.68-14.71-3.53-14.38-5.83-26.37-15.81-36.81-26.7-6.94-7.23-14.78-14.74-17.92-25.38-1.68-5.72-5.25-10.91-8.22-16.21-1.4-2.49-.9-3.67,1.74-4.25a38.84,38.84,0,0,1,9.16,6.86c4.17,7.17,5.7,15.88,12.74,21.42,2.16,1.7,3.28,4.56,4.66,6.85,2.88,4.77,8.72,6.85,10.47,12.41a1.31,1.31,0,0,0,.67.72c8.31,4,14.72,11,23.31,14.64,6.52,2.76,12.71,6.27,19.12,9.28Z" transform="translate(792.23 46.67)"/><path class="cls-19" d="M-661.29,287.24c-3.36-4.44-8.16-6.86-12.54-10-7.33-5.25-15.31-10-21.54-17.05-6.49-7.37-14.17-13.67-19-22.46-4.39-8-10.77-15-13.56-23.57-2.15-6.66-4.56-13.29-7.28-19.62-2.2-5.09-.75-10.65-3.74-15.47a5.72,5.72,0,0,1,.89-6.92l8.84,8.1-4.09-.78c1.9,3,1.86,5.75,2,8.6.2,4.73,3.44,8.49,4.61,13,2.72,10.54,8.38,19.62,14.55,28.59,4.64,6.73,9.61,13.17,14.34,19.78,5.36,7.48,12.67,12,19.61,17.4a132.5,132.5,0,0,0,16.38,10.72c1.49.83,4.39,2,1.52,4.63.16.93-.5,1.54-.9,2.26Z" transform="translate(792.23 46.67)"/><path class="cls-20" d="M-499.81,214.14a142.4,142.4,0,0,1,16.23-11.95c2.77.48,1.87,2.4,1,3.52-5,6.31-7.21,14.21-12.28,20.51s-11.45,11.53-16.72,17.72c-4.19,4.92-9.86,8.17-14.57,12.51-2,1.86-5,1.51-7.33,3-5,3.17-10.7,5.17-15.83,8.18-1.77,1-3.53.63-5.22-.31-2.76-2.21-5.68-4.23-7.9-7,11-2.76,20.81-8.33,31-12.95,2.26-.29,4.53-.52,6.78-.88,1.71-.27,2.45-1.32,2.4-3.11-.07-2.26-1.58-2-3.08-2.08-2.09-.1-4.28.38-6.18-1,2.28-2.14,5.13-1.14,7.75-1.41,3.49.14,6.13-1.89,8.17-4.18,5.39-6.05,11-11.91,15.53-18.7A1.83,1.83,0,0,0-499.81,214.14Z" transform="translate(792.23 46.67)"/><path class="cls-21" d="M-630,267.39c-9.81-2.63-18.44-7.67-27.21-12.64-5.16-2.92-9.3-7.34-14.92-9.46a3.63,3.63,0,0,1-2-1.45c-2.87-6.34-9.31-9.75-12.78-15.4-2.36-3.83-6.93-6.52-7.78-10.44-1.25-5.81-7.88-9.26-6.31-15.93a63.56,63.56,0,0,1,12.37,9.21,17.16,17.16,0,0,0,4.78,8c5.27,5.07,9,11.59,15,15.94,2.64,1.91,3.56,5,4.93,7.42-.11,1,1-.06.38.24-1.17-2.56.6-3.19,2.47-3.78,2.76-.12,5.63-.94,8,1.3-1.94,1.29-4.15.76-6.25.89-1.28.08-2.75-.29-2.95,1.7a3,3,0,0,0,2.14,3.41c2.22.94,4.56.54,6.82.95,8.06,5.22,17.69,7.08,25.84,12.06,1.41.86,3,1.13,4.36,1.95A31.19,31.19,0,0,1-630,267.39Z" transform="translate(792.23 46.67)"/><path class="cls-22" d="M-734.33,137.47c.83-11.17,4.13-21.71,7.61-32.3,3.57-10.86,9.17-20.69,14.77-30.42,3.3-5.73,7.93-10.94,12.46-16,2.29-2.58,5.6-4.14,7.17-7.36a28.8,28.8,0,0,0,5-5c.78-1,2.1-1.18,3-2l3-2a40.82,40.82,0,0,1,4-4l1-1c2.38-1.16,4.21-3.4,7.06-3.68a2.38,2.38,0,0,1,1.16.69A3.53,3.53,0,0,1-668.6,37a46.85,46.85,0,0,1-6.73,5.34c.24.76.94,1.78.05,2.25-6.13,3.17-10.47,8.35-14.64,13.52-3.16,3.9-7.93,5.93-10.54,10.39-5.57,9.52-12.28,18.34-17,28.41-2.85,6.1-3.79,12.77-6.53,18.86-2.63,5.84-2.55,12.26-3.64,18.42-.43,2.41-1.91,4.06-2.7,6.15A9,9,0,0,1-734.33,137.47Z" transform="translate(792.23 46.67)"/><path class="cls-23" d="M-682.32,71.35h2c3.65-.27,6,1.47,7.29,4.78-1,1.74-2.71,2.63-4.09,3.94-8,9.47-15.84,19.06-18.89,31.52a10.22,10.22,0,0,1-.92,2.31c-3.06,5.84-3.78,12.31-5.21,18.61s-2.71,12.47-2.3,19a9.11,9.11,0,0,1-1.9,6.06,50.1,50.1,0,0,1-10-7.16c2.55-4.91,2.51-10.31,3.25-15.62,2.34-16.86,7.48-32.63,17.83-46.59C-691,82.49-687.34,76.43-682.32,71.35Z" transform="translate(792.23 46.67)"/><path class="cls-24" d="M-706.36,157.55c.6-9.43.91-18.85,3.35-28.12,1.2-4.6,2.33-9.23,3.62-13.82.34-1.24.63-2.2,2.07-2.29,4.36-12.69,11.66-23.64,20-34,.86-1.57,1.92-2.88,3.89-3,2.11.05,3.59.94,4.11,3.1-1.38,5.66-5.16,9.91-8.87,14A38.94,38.94,0,0,0-687,108.52c-1.56,5.25-4.85,9.66-6.15,15.06-1.95,8-4.67,16.16-4.72,24.28,0,5.37-1.44,11.35,1.43,16.65A45,45,0,0,1-706.36,157.55Z" transform="translate(792.23 46.67)"/><path class="cls-25" d="M-745.29,166.29c-.53,1.05-2.2,1.35-1.42,3.26,3.15,7.71,3.42,16.12,5.59,24.1,1,3.78,2.43,7.42,3.73,11,2.75,7.59,5.14,15.45,9.57,22.26,5.05,7.77,9.35,16,15.58,23.05,7.86,8.89,16.54,16.86,25.07,25,2.69,2.58,6.19,3.05,9.09,5,3.88,2.54,6.74,6.55,11.21,8.11,2.37.83,4.61,3.55,7.53,1.19,1.66.8,2.27,2.4,3,3.9-.49,2.84-1.73,3.68-4.47,2.08-6.57-3.83-13.49-7.11-19.79-11.32a169.62,169.62,0,0,1-16.7-13.24c-17.13-14.87-29.81-33.12-39.32-53.53-6.15-13.19-9.57-27.37-12.2-41.63-.63-3.37-.42-7-1.31-10.55-.49-1.94,0-3.9,2.89-2.69l.94,1.11C-745.82,164.32-744.62,165-745.29,166.29Z" transform="translate(792.23 46.67)"/><path class="cls-25" d="M-438.3,163.3c2.48.17,2.05,1.63,2,3.49-.4,9-2.27,17.72-4.38,26.33a139.37,139.37,0,0,1-13.65,35.16c-7.9,14.06-17.92,26.41-29.1,37.93-7.28,7.5-15.71,13.38-24.48,19-4.31,2.75-8.54,5.66-13.08,8-2.28,1.18-4.77,3.52-7.57.75a14.66,14.66,0,0,1,4.16-5.77c6-.46,10.19-4.6,15-7.37,16.56-9.54,28.81-23.8,40.78-38.22,7.76-9.35,12.6-20.41,17-31.75,2.39-6.17,4.49-12.36,6.34-18.69,1.52-5.21,3.1-10.3,3.27-15.86.13-4.24,1.73-8.41,3.44-12.38A.56.56,0,0,1-438.3,163.3Z" transform="translate(792.23 46.67)"/><path class="cls-18" d="M-554.54,267.3c5.63.21,9.63-3.85,14.48-5.69a57.28,57.28,0,0,0,11.69-5.6c3.48-2.36,7.55-4.24,10.42-7.34,6.14-6.65,12.74-12.83,19.05-19.29,5.19-5.3,8.34-12.07,11.68-18.62a13,13,0,0,1,2.93-4.45c1-.86,2.73-2.38.71-4.12A36.06,36.06,0,0,1-473.51,195c1.34,1.56,0,2.75-.53,4.07-5.6,14.37-14.27,26.94-23.73,38.9-6.61,8.36-15.8,14.06-24.27,20.43-7.07,5.32-15.5,8.14-23.22,12.27-2.91,1.55-5,.3-7.16-1.46Z" transform="translate(792.23 46.67)"/><path class="cls-18" d="M-682.32,71.35a7.21,7.21,0,0,1-2.33,4.21c-5.93,6.31-10,14-14.77,21.12-4.38,6.5-5.84,14.39-8.71,21.59s-3.52,14.14-4.09,21.33c-.33,4.23-.81,7.93-4.14,10.79l-2.95-2.1c1.59-10.24,2.71-20.54,5.87-30.53,4.24-13.42,9.35-26.34,18.52-37.24,2.42-2.89,4.25-6.17,6.59-9.13C-685.64,68-684.33,69.34-682.32,71.35Z" transform="translate(792.23 46.67)"/><path class="cls-26" d="M-458.61,183.19a9.53,9.53,0,0,1,5-3.27c2.1,1.92,2.22,4.23,1.53,6.82-2.91,10.9-7.61,21-12.38,31.21-4.92,10.53-11.62,19.63-18.7,28.5s-15,16.6-24.61,22.52a13,13,0,0,0-5.12,2.93c-1.67,1.43-3,3.29-5.18,4.1-1.4.37-2.9.49-4,1.61a7.33,7.33,0,0,1-1.1.7,12,12,0,0,0-5.31,3.75,3.93,3.93,0,0,1-1.15.68c-1.05.24-2.14.39-2.77,1.44l-3,.1c-.74-.62-1.59-1.16-1.72-2.25,0-2.81,2.41-3.34,4.28-4.27,13-6.48,25.13-14.37,35.38-24.69C-486.21,241.76-475.7,229.72-469,215c3.76-8.26,7.65-16.51,9.83-25.43A16.85,16.85,0,0,0-458.61,183.19Z" transform="translate(792.23 46.67)"/><path class="cls-17" d="M-552.42,269.25c6,3.08,10.13-1.79,14.91-3.61,10.46-4,19-11.21,27.67-17.89,4.89-3.75,9.57-7.94,13-13.34s7.94-10.56,11.65-16a88.62,88.62,0,0,0,6-10.79c2-4.12,3.78-8.37,5.65-12.56a2.34,2.34,0,0,1,1.93-1.84c1.39.92,1.35,2.26.83,3.54-4.92,12.09-9.9,24-18.54,34.26-4.63,5.49-8.37,11.85-14,16.39a254.3,254.3,0,0,1-23,16.91c-6.31,4-14.08,5.41-19.37,11.1C-548.08,273.5-550.66,271.83-552.42,269.25Z" transform="translate(792.23 46.67)"/><path class="cls-11" d="M-438.58,163.91c-1.19,13.59-3.61,27.23-8.64,39.64-4.18,10.29-7.43,21.2-14.18,30.66a273.32,273.32,0,0,1-23.79,28.55c-5.32,5.67-10.91,11-17.32,15.13s-12.49,8.8-19.7,11.56c-1.37.53-1.72-.42-2.22-1.27.32-1.31.64-2.63.95-3.94,5,.17,8.87-2.49,12.57-5.23,13.19-9.78,26-19.89,36.06-33.22,16.07-21.22,26.77-44.52,30.88-70.83a4.53,4.53,0,0,0-.16-2,8.93,8.93,0,0,1-.36-2.72A31.3,31.3,0,0,1-438.58,163.91Z" transform="translate(792.23 46.67)"/><path class="cls-27" d="M-443.45,172.29c2.37,3,.24,6.25-.35,8.94-3.73,17.1-9.35,33.4-18.89,48.46-4.55,7.2-9.18,14.36-14.27,21.13-5.52,7.36-12.65,13.32-19.86,19.05-6.85,5.44-13.53,11.14-21.57,14.9-2,.91-3.59,1.65-5.09-.53l-7.91-.09c-.54-1.88,1.38-1.22,2-1.92h0a6.14,6.14,0,0,1,4.31-1.13,10.2,10.2,0,0,1,1.44.21c.95.16,1.89.53,2.86-.08,9-5.66,19.42-9.31,25.61-18.77a5,5,0,0,1,1.09-1A86.46,86.46,0,0,0-471,235.25c1.87-3.24,3.88-6.49,6.07-9.58a53.59,53.59,0,0,0,7.46-14.91c1.85-5.39,5.68-10.06,5.88-16.06a10.25,10.25,0,0,1,.31-1.33c1-2.88,2.44-5.66,1.81-8.88a5.67,5.67,0,0,1,.3-1.92c.5-1.15,1.22-2.22,1.1-3.56a5.3,5.3,0,0,1,.28-1.3C-446.55,175.72-446.76,172.6-443.45,172.29Z" transform="translate(792.23 46.67)"/><path class="cls-28" d="M-623.12,261.32c-1.9.65-3.55-.15-5.06-1.08-6.58-4.09-14.49-5.23-21-9.44a41.33,41.33,0,0,1-4.14-3.49c5-.51,7.82-4,10.4-7.66,2.09-3,3.69-3.91,6.73-.65,5.06,5.42,10.67,10.32,16.11,15.38,1.13,1.06,2.31,1.94,1.48,3.71Z" transform="translate(792.23 46.67)"/><path class="cls-28" d="M-531.42,247.31a64.62,64.62,0,0,1-16.84,9.13c-4.66,1.64-8.92,4.5-14.18,3.82-1.51-1.39-4.81-1.66-3.1-5a165.49,165.49,0,0,0,17.47-16.11c2.54-2.68,4.07-3.1,6.34.23C-539.21,243-536.28,246.51-531.42,247.31Z" transform="translate(792.23 46.67)"/><path class="cls-29" d="M-458.61,183.19c1.37,1.11,2.55,2.48,1.53,4.23-2.74,4.69-3.15,10.12-5.1,15.11-5.53,14.17-12.72,27.43-22.56,38.83s-20.75,22.33-33.92,30.07c-4.59,2.7-9.24,5.69-14.33,7.66-1.46.56-3.3,1-3.41,3.14-1.32.61-2.06-.55-3.05-1l-1-1c4.72-2.48,10-4.29,14-7.6,5.56-4.57,12.07-7.51,17.73-11.91,8.63-6.71,17-13.76,22.88-22.81,4-6.17,9.8-11,12.67-18.13,2-5,5.65-9.77,7.13-14.73,1.59-5.3,4.75-10.41,4.37-16.34-.07-1.19.74-2.44,1.15-3.67A2.63,2.63,0,0,1-458.61,183.19Z" transform="translate(792.23 46.67)"/><path class="cls-30" d="M-653.08,240.36l-9.24-.12a6.33,6.33,0,0,0-3-5.32,55.33,55.33,0,0,1-8.61-8.22c-2.91-3.17-2.55-4.11,1.61-5.42l0,0c4.27-2.08,8.73-2,13.25-1.1,7.34,3.09,11.17,9.47,9.35,15.74C-650.24,237.75-650.8,239.76-653.08,240.36Z" transform="translate(792.23 46.67)"/><path class="cls-31" d="M-748.31,124.38c2.38-9,3.6-18.5,7.48-26.77,3.76-8,6.93-16.35,11.84-24a208.36,208.36,0,0,1,12.85-18.3c4.22-5.27,7.1-11.92,13.82-14.91.68,4.13-3.28,5.36-5,8l-1,1c-1,1.31-1.85,2.78-3,4a98.59,98.59,0,0,1-6.57,9.2c-4.56,5.8-7.65,12.55-11.31,18.93s-7.46,13-8.66,20.26c-1.13,6.87-5.72,12.5-6,19.54-.08,2-2.26,2.73-3.44,4.06Z" transform="translate(792.23 46.67)"/><path class="cls-19" d="M-562.44,297.42c-.6.54-1.23,1.58-1.78,1.55-7.16-.45-14,2-21.14,2.18-10,.3-19.87-.74-29.8-1.1-2.05-.07-5.17.41-6.19-2.76,2-1.46,3.47-3.55,5.94-4.32,2.58,2.07,5.37,0,8.13.33,4.39.58,8.78,2.33,13,2.07,8.28-.51,16.52-2,24.86-2.12C-566.28,293.32-565,296.44-562.44,297.42Z" transform="translate(792.23 46.67)"/><path class="cls-26" d="M-569.38,293.25c0,.63,1.11,1.86-.49,1.66-8.29-1-16.28,1.82-24.39,1.86-4.56,0-9.29-1.88-14-2.26a47.76,47.76,0,0,0-6.3.38c-2.07.13-.69-1.21-.8-1.92,2.9-2.12,5.62-4.51,9-5.91,5,3.12,10.37,1,15.54,1.12,4.46.06,9.18,2.41,13.46-.83C-574,288.28-572.32,291.64-569.38,293.25Z" transform="translate(792.23 46.67)"/><path class="cls-32" d="M-577.42,287.35c-1.31,2.84-3.24,3.08-6.36,2.76a141.82,141.82,0,0,0-19.56-.29c-2.42.08-2.81-1-3.08-2.76l13.06-9.88C-587,278.87-582.66,283.86-577.42,287.35Z" transform="translate(792.23 46.67)"/><path class="cls-33" d="M-672.34,221.28c-2.39,1.25-3.59,2.49-.77,4.78,3.44,2.79,6,6.52,9.86,9,1.86,1.2,4,2.88.93,5.22-1.6,1-.58,2.79-1.48,4.31-2.57-5.08-7-8.46-10.35-12.55-5.28-6.33-12.16-11.53-15.37-19.51-.39-1,.23-1.09.91-1.21C-683.46,215.06-678.6,219.31-672.34,221.28Z" transform="translate(792.23 46.67)"/><path class="cls-33" d="M-659,220.16c-4.44.11-8.9-.06-13.25,1.1C-668.11,218.19-663.68,218-659,220.16Z" transform="translate(792.23 46.67)"/><path class="cls-6" d="M-758.29,134.31l1.12,0c1.26,1.87.82,4,.82,6C-758.22,138.69-758.38,136.54-758.29,134.31Z" transform="translate(792.23 46.67)"/><path class="cls-13" d="M-745.29,166.29c-.34-1-.67-1.92-1-2.88a10.66,10.66,0,0,1,4.36,4.77Z" transform="translate(792.23 46.67)"/><path class="cls-34" d="M-619.31,196.23v5.84c-.82-2-1.82-4,0-5.85Z" transform="translate(792.23 46.67)"/><path class="cls-26" d="M-539.45,281.25l3.05,1c.34.68.67,1.36,1,2C-537.47,284.25-538.44,282.73-539.45,281.25Z" transform="translate(792.23 46.67)"/><path class="cls-26" d="M-529.4,282.23l-2,1.92-1,0C-533.28,280.65-531.07,281.86-529.4,282.23Z" transform="translate(792.23 46.67)"/><path class="cls-35" d="M-656.25,245.87a2.43,2.43,0,0,1,3-.16C-654.2,246.64-655.25,246-656.25,245.87Z" transform="translate(792.23 46.67)"/><path class="cls-11" d="M-661.24,284.49a2,2,0,0,1,.9-2.26c2.41.35,5.3-1.09,7,1.9C-656,284.61-658.65,283.48-661.24,284.49Z" transform="translate(792.23 46.67)"/><path class="cls-14" d="M-454.42,140.37a24.65,24.65,0,0,1-8,6.11,3.19,3.19,0,0,1-.82-1.17c-1.72-6.22-3.52-12.36-4.06-18.91-.78-9.54-5.12-18.17-8.72-26.89-3.7-8.93-9.07-17-14.9-24.63-8-10.45-17.76-19.18-28.41-27-11-8.11-23.36-13.29-36.16-17.38-9.1-2.9-18.48-5.32-28.26-4.77a2.83,2.83,0,0,1-1.78-2.32c0-2.51-1.5-4.92-.5-7.5,6-.86,11.71,1,17.56,1.75,11.13,1.36,21.48,5.07,31.69,9.62C-522,33.84-508.52,42.32-497,53.65A150.91,150.91,0,0,1-477.45,77.3c3.46,5.15,5.83,10.82,9.37,15.91,3.11,4.47,3.95,10.11,5.82,15.23,3.27,8.92,6,18,5.86,27.68C-456.44,138-453.89,138.41-454.42,140.37Z" transform="translate(792.23 46.67)"/><path class="cls-36" d="M-707.31,48.35c.07-3.66,4.69-4.47,5-8,.44-3.16,2.94-5,5.19-6.37,6.59-4,11.86-9.75,18.42-13.79A177.38,177.38,0,0,1-640.4,2.4a143.47,143.47,0,0,1,24-5.39c6.15-.89,12.49-2.12,19.06-1.76,4.5.25,9.2-.57,14,0,8.15.87,16.31,1.71,24.35,3.3,6.87,1.36,13.76,2.86,20.12,6,7,3.43,14.48,5.82,21.22,10.17,5.07,3.27,11.08,5,15.89,9.19,4.47,3.88,9.54,6.91,14,11.1C-482.57,39.83-477,44.5-472.52,50s9.7,10.7,11.65,18c.8,3,4.2,3.68,5.81,6.48,7.6,13.16,12.34,27.36,16.54,41.8.78,2.66,2.68,5.07,2.07,8.09l-2.85,2.35c-4-8.39-4.52-17.85-8-26.39-5.47-13.39-11.05-26.66-20.76-37.83-3.29-3.77-6-8.14-9.14-12.17-5.74-7.4-13.17-12.88-20.18-18.84-5.07-4.32-10.39-9-16.2-11.59-5.49-2.43-10.66-5.56-16.25-7.79-10.24-4.08-20.44-8.34-31.37-10-9.37-1.45-18.42-4.6-28.43-2.69-5,1-10.74-1.25-16.17-.29-10.27,1.82-20.49,3.45-30.63,6.4s-19.47,7-28.85,11.21c-6.63,3-12.62,7.55-18.6,11.83a124.11,124.11,0,0,0-21.19,18.94C-705.54,48-706.55,48.07-707.31,48.35Z" transform="translate(792.23 46.67)"/><path class="cls-22" d="M-454.42,140.37c-2.17-1.19-3.75-2.13-3.21-5.51a32,32,0,0,0-1.94-15.47c-3-7.84-4.73-16.14-8.34-23.67-2-4.16-3.91-9.35-6.53-12-3.73-3.82-5.13-8.79-8.78-12.51-3.87-4-7.43-8.4-11-12.67-7.78-9.29-17.49-16-27.46-22.28-3.53-2.22-7-5.2-10.89-6.49-12.58-4.21-24.57-10.14-38.27-11.33-4.56-.4-10.41,1.11-14.52-3-2.61-.24-2.31-2.21-2.36-4,1.93-2.81,4.9-2.7,7.65-2.29,22.18,3.29,43.54,9.28,62.83,21A138.38,138.38,0,0,1-490,52.41a171.53,171.53,0,0,1,21.75,28.42A88.39,88.39,0,0,1-460,96.54c3.95,10.51,9,20.92,8.91,32.49,0,3.26,2.85,4,3.65,6.29A13.63,13.63,0,0,1-454.42,140.37Z" transform="translate(792.23 46.67)"/><path class="cls-37" d="M-447.44,135.32c-3.73-1.06-5.33-2.83-4.82-7.34.44-3.78-.9-8-2.32-11.71-2.88-7.49-4.13-15.5-8.1-22.68-6.1-11.06-12.07-22.33-20.43-31.7-5.42-6.07-10.2-13-17.43-17.56-5.15-3.21-9.24-7.84-14.55-11.09-7.55-4.62-15.14-8.94-23.42-12.06-9.85-3.73-19.73-7.64-30.27-8.58-6.16-.55-12.18-4.58-18.59-1.22a1,1,0,0,1-1.4-.21,3.35,3.35,0,0,1-.51-1.5c.12-2.51,1.63-3.56,3.92-3.3,4,.44,8,.59,12,1h1a6,6,0,0,0,4,1h3c5.16.79,9.86,3.31,15.08,3.86,4.11.43,7.2,3.24,10.85,4.76,5.32,2.21,11.17,3.09,16.05,6.37h1a9.92,9.92,0,0,0,4.73,3.28,8.11,8.11,0,0,1,5.27,4.71c1.76-1.23,2.73-2.12,4.94.44,1.86,2.15,5,3.63,7.55,5.61,10.85,8.47,19.12,19,27.5,29.83,6.9,8.89,11.26,19,17,28.35a15.11,15.11,0,0,1,2.39,8,16.81,16.81,0,0,0,2.75,10.15c3.93,6.08,2.52,13.32,4.89,19.68Z" transform="translate(792.23 46.67)"/><path class="cls-24" d="M-487.44,164.26c-1.93-7.07-.07-14.3-.9-21.46-.81-7-1.5-14-4.54-20.4-1.85-3.9-1.81-8.27-3.83-12.25C-501,101.62-505,93-512.39,86.48c-2-1.74-2.74-4.83-4.07-7.29,0-2.66,2.07-3,4-3.63,1.88-.18,3.21.83,4.44,2,1.41,1.45,2,3.51,3.65,4.8a12.12,12.12,0,0,1,1,.9c2.59,2.28,2.8,6.1,5.45,8.33a15.41,15.41,0,0,1,2.11,2.59,6.88,6.88,0,0,0,2.75,3.57c3.44,3.14,4.37,7.72,6.24,11.66A61,61,0,0,1-481,128.8c1,9.32,2.73,18.5,4.66,27.65A59.14,59.14,0,0,1-487.44,164.26Z" transform="translate(792.23 46.67)"/><path class="cls-20" d="M-496.42,94.33a3.43,3.43,0,0,1-2-2c-1.64-3.24-2.75-6.82-6-9-1.36-1.65-1.87-4-4-5-1.42-.64-2.39-2.18-4.18-2.07,1.45-4.36,5.57-5.11,9.08-6.69.49,0,1.18,0,1.41.32,6.12,9.63,13.05,18.77,18.78,28.62a48.18,48.18,0,0,1,5.17,12.28c1.31,5.19,3,10.3,4.8,15.37,1.61,4.56,1.61,9.45,1.91,14.25.2,3.13-.71,6.31.29,9.39.77,2.37-1.49,3.05-2.25,4.55a4.6,4.6,0,0,1-2.94,2.09c-3.57-5-3.64-11.06-4.58-16.75-1.27-7.69-2.17-15.41-4.41-22.95-1.62-5.47-5.21-10-6.38-15.67a4.38,4.38,0,0,0-2.7-2.75C-495,97-495.24,95.4-496.42,94.33Z" transform="translate(792.23 46.67)"/><path class="cls-19" d="M-450.45,193.28v1c-2.33,5.05-3.87,10.4-6.49,15.4-2.79,5.34-5,11.07-7.5,16.58-5.48,11.83-13.48,21.94-22.39,31.26-1.69,1.76-3.57,4.34-6.59,4.72-4.6,2.55-7.55,7.07-12.09,9.79-5.89,3.53-11.33,7.85-17.9,10.2h-1c-1.72-2.08.07-3.45,1-5h1c.73-1.88,2.8-1.06,4-2l5-4c1.71-.92,3.61-1.53,5-3,9.06-5.79,16.65-13.31,23.48-21.43,6.14-7.31,12.33-14.93,16.6-23.37,4.18-8.28,8.55-16.62,11.58-25.6,1.34-4,1.72-8.37,3.91-12.14,1.06-1.84-1-3.76-.75-5.77.64-2.8,2.92-4.17,5-5.74,2,.74,2,.74,1.18,4.1v1a4.76,4.76,0,0,1-1,3v2A27.55,27.55,0,0,0-450.45,193.28Z" transform="translate(792.23 46.67)"/><path class="cls-18" d="M-473.41,154.36c2-5.53.8-11.21.46-16.77-.3-4.82-.74-9.56-3.27-14.32a24,24,0,0,1-2.52-9.17c-.18-5.25-4.53-8.86-4.66-13.88-.07-2.5-2.5-3.25-3.58-4.66-4.59-6-6.27-14-12.94-18.49-2.45-1.64-1.62-4.9-3.56-6.75-.35-2,1.18-2.53,2.58-3.13a4.42,4.42,0,0,1,2.25-.19c3.34,1.41,3.28,5.2,5.31,7.58a111.49,111.49,0,0,1,12.54,18,117,117,0,0,1,12.62,35.95c.76,4.06,2.3,8,2.27,12.2,0,2.21,2,3.33,3.46,4.63,0,.39.05.78.07,1.17A64,64,0,0,1-473.41,154.36Z" transform="translate(792.23 46.67)"/><path class="cls-30" d="M-522.44,240.21l-9.06.07c-2.2-.92-3-2.7-3-5a21.84,21.84,0,0,0,0-5.11c3.09-10.13,13.31-14.33,22.14-9.1,3.23.94,3.9,2.34.85,4.5-3.53,2.5-6.17,5.92-9.16,9C-522.35,236.3-523.1,237.94-522.44,240.21Z" transform="translate(792.23 46.67)"/><path class="cls-24" d="M-522.44,240.21c-2.45-1.24-3.44-2.43-.75-4.77,3.92-3.43,6.62-8.22,11.16-10.93,3-1.82.51-2.36-.35-3.4,5.38-.18,8.31-4.77,12.57-7,.65.25,2.24.18,1.51,1.19-6.39,8.84-12.52,18-21.79,24.21A8.32,8.32,0,0,1-522.44,240.21Z" transform="translate(792.23 46.67)"/><path class="cls-38" d="M-447.45,178.29c-1.23-1.13.74-3.18-1.18-4.1l4.14-3.92a2.08,2.08,0,0,1,1,2C-445.82,173.59-445.18,176.91-447.45,178.29Z" transform="translate(792.23 46.67)"/><path class="cls-39" d="M-534.52,230.21c1.66,1.71,1.66,3.42,0,5.11A5.33,5.33,0,0,1-534.52,230.21Z" transform="translate(792.23 46.67)"/><path class="cls-1" d="M-500.69,68.28a4.18,4.18,0,0,0-2.79,2,45,45,0,0,0-9.12,6c-1.48.72-3.17,1.15-3.86,2.92-13.37,7.48-25.56,16.8-38.47,25-2.63,1.67-1.16,3.77-.53,5.76q9.35,29.46,18.71,58.93a3.57,3.57,0,0,1-.16,3.43c-6.63-5-13.21-9.93-19.76-14.9-10.21-7.75-20.51-15.38-30.52-23.37-3.39-2.71-5.73-2.37-9,0-16.49,12.13-33.13,24.06-49.72,36.05-.92.66-1.87,1.29-3.44,2.36.67-4.93,2.47-8.79,3.85-12.75q8.52-24.22,17.18-48.41c.8-2.21,1.33-3.9-1.11-5.55-12.29-8.26-24.48-16.68-36.73-25a16.83,16.83,0,0,0-3.17-1.33l-4.11-3.1c-1.69-2.51-4.37-3.65-6.9-5l-3.33-3.56c1.56-1,3.24-.43,4.81-.43,19.48,0,39,0,58.44,0,1.7,0,3.69.84,5.11-1,0-.23-.05-.47-.08-.71.76-4.7,2.76-9,4.3-13.48a88.09,88.09,0,0,0,3.87-10.7c.41-1.13.76-2.28,1.18-3.41,2-3.33,1.88-7.63,4.78-10.55a2.41,2.41,0,0,0,.88-2.23,3.42,3.42,0,0,0,1.07-2.8,59.18,59.18,0,0,0,2.12-9.4c.92-1.46.75-3.46,2.26-4.64a.41.41,0,0,0,.56-.09c.82-1.49,1.63-3,2.47-4.52,1.84.55,1.24,2.74,2.43,3.74,1.09.7.19,2.12,1.05,2.91a1,1,0,0,0,.13.87c2.31,3.69,2.46,8.08,3.89,12.06l.9,2.12c2.88,2.49,2.23,6.4,3.83,9.4a36.21,36.21,0,0,0,2,5.35,12.81,12.81,0,0,1,.61,2.09c1.08,3.72,1.89,7.53,3.54,11.07,2.15,3.91,1.24,9.14,5.29,12.24,20.49.58,41,0,61.44.31C-504.65,66-501.69,64.81-500.69,68.28Z" transform="translate(792.23 46.67)"/><path class="cls-40" d="M-601.37,5.38c-2,2.51-4.68,2.25-7.51,2.37-8.13.35-15.89,2.37-23.71,4.78-5.71,1.76-11.33,3.74-17,5.51-7.35,2.29-13.26,7-19.85,10.56-4.61,2.47-10,4.55-13.19,8.35C-686.88,42-693,44.68-696.77,50a16.77,16.77,0,0,1-7.54,6.32c.6-5.11,4.61-8.26,7.92-11,8.88-7.36,17.64-15.13,27.78-20.67,14.65-8,30.08-14.2,46.61-17.5,5.65-1.12,11.18-2.63,17-2.73C-603.72,4.43-602.33,4.06-601.37,5.38Z" transform="translate(792.23 46.67)"/><path class="cls-15" d="M-523.41,23.37c-8.23-2.16-16.23-4.67-23.79-8.91-4.2-2.35-9.5-3-14.41-3.72a4.51,4.51,0,0,1-3.78-2.36c9.49-1.14,17.37,4,26,6.42,4,1.1,6.94,4.4,11.46,4.29C-526,19-524.57,21.53-523.41,23.37Z" transform="translate(792.23 46.67)"/><path class="cls-15" d="M-588.42,10.5a3.52,3.52,0,0,1-1.05-2.91c.33-2-.84-5.21,3.59-2.79,2.36,1.28,5.72.93,8.63.93a4.66,4.66,0,0,1,3.87,1.65c-3.49.29-6.82,1.92-10.52-.2A3.11,3.11,0,0,0-588.42,10.5Z" transform="translate(792.23 46.67)"/><path class="cls-15" d="M-512.41,31.36c-2.45-1.61-4.44-3.94-7.74-4.17-2.14-.16-2.28-2.08-2.26-3.82,4.14-.82,6.47,2.79,9.77,4.06C-510.53,28.24-512.73,30-512.41,31.36Z" transform="translate(792.23 46.67)"/><path class="cls-40" d="M-594.39,6.38c-2-.33-4.23.81-6-1C-598.17,4.48-595.59,1.36-594.39,6.38Z" transform="translate(792.23 46.67)"/><path class="cls-15" d="M-568.38,8.38c-2.21,3.14-3.32,1.91-4-1C-570.48,5.43-569.39,6.75-568.38,8.38Z" transform="translate(792.23 46.67)"/><path class="cls-36" d="M-711.31,53.35c.07-2,1.39-3.12,3-4C-708.66,51.18-708.94,53.05-711.31,53.35Z" transform="translate(792.23 46.67)"/><path class="cls-22" d="M-596.24,13.62a26.42,26.42,0,0,1-3.07,8.88c-.45-2.16.6-4.18,1-6.14-1.91-.85-2.13,1.84-4.16,1.05-6.31-2.42-12.34.89-18.34,2a95.56,95.56,0,0,0-29.18,10c-1.25.68-2.86.69-4.31,1a2.47,2.47,0,0,1-3,.25c-.63-2.88,1.52-3.74,3.49-4.5,13.34-5.19,26.56-10.49,41.1-12.08,5.09-.56,10.28-1.59,15.49-2C-596.38,12.23-595.72,12.57-596.24,13.62Z" transform="translate(792.23 46.67)"/><path class="cls-41" d="M-675.33,42.36c1.12-2.88,4.5-3.5,6-6,1.67-1,3.36-1.93,5.42-1.44l.58.44C-666.71,38.76-670.28,41.83-675.33,42.36Z" transform="translate(792.23 46.67)"/><path class="cls-41" d="M-657.34,30.36h3c-1.93,3.58-5.6,4-9,5h0a2,2,0,0,1-.42-2.06A6.73,6.73,0,0,1-657.34,30.36Z" transform="translate(792.23 46.67)"/><path class="cls-22" d="M-657.34,30.36l-6,3c-1.54.93-3,2.38-5,1-.78-2,1.17-2.1,2-3,4.05-2.84,8.64-4.7,13-7a2.06,2.06,0,0,1,2-1c3.17-2.69,7.45-2.32,11-4,.86-1.62,3.15-.37,4-2,2.35-1.92,5.6-.24,8-2h0c1.57-.9,3.57-.72,5-2,2.69-.15,5.49.55,8-1,4.34-1,8.87-.6,13.2-1.65a4.19,4.19,0,0,1,4.79,1.65c-.57.56-1.34,1.69-1.69,1.57-6.58-2.2-12.34,1.76-18.54,2.4a85.94,85.94,0,0,0-30.88,9.42C-651.43,27.29-655.52,26.61-657.34,30.36Z" transform="translate(792.23 46.67)"/><path class="cls-42" d="M-597.37,12.37c-5-1.6-10,.19-14.91.56-1.16.08-2.22.63-3.08-.56,2.41-2.42,5.6-1.49,8.45-2,4-.76,8.24.32,12-1.87-.57,1.69.26,3.73-1.31,5.16Z" transform="translate(792.23 46.67)"/><path class="cls-42" d="M-653.34,24.37a32.34,32.34,0,0,1-13,7C-663.07,27.06-658.49,25.19-653.34,24.37Z" transform="translate(792.23 46.67)"/><path class="cls-42" d="M-640.35,19.37c-3.17,2.68-7,3.68-11,4C-649.1,18.13-644.38,19.69-640.35,19.37Z" transform="translate(792.23 46.67)"/><path class="cls-42" d="M-666.33,31.36l-2,3c-3.33-.77-4.67,3.77-8,3C-674,33.69-670.26,32.38-666.33,31.36Z" transform="translate(792.23 46.67)"/><path class="cls-42" d="M-628.35,15.37c-2.18,2.63-5.2,1.89-8,2C-634.52,13.36-631,16.23-628.35,15.37Z" transform="translate(792.23 46.67)"/><path class="cls-42" d="M-677.33,38.36a4.16,4.16,0,0,1-4,4C-681.53,39.49-680.2,38.15-677.33,38.36Z" transform="translate(792.23 46.67)"/><path class="cls-42" d="M-687.32,46.36a5.82,5.82,0,0,1-5,5A7.63,7.63,0,0,1-687.32,46.36Z" transform="translate(792.23 46.67)"/><path class="cls-42" d="M-623.36,13.37c-1,2.34-3.07,2-5,2A5.75,5.75,0,0,1-623.36,13.37Z" transform="translate(792.23 46.67)"/><path class="cls-42" d="M-684.32,44.36a3,3,0,0,1-3,2C-687.23,44.32-685.78,44.34-684.32,44.36Z" transform="translate(792.23 46.67)"/><path class="cls-43" d="M-606.3,41.47a37.55,37.55,0,0,1-3.94,11.15c-.6-.31-.64-1.17-1.86-.9a106.8,106.8,0,0,0-18,5.39c-6.25,2.59-12.26,5.58-18.23,8.72-4.34.26-8.71-.55-13,.48-7-.49-14.1,1.19-21-1,2.2-1.59,4.74-1.42,7.25-1.41a20.83,20.83,0,0,0,15.91-3.88c9.37-6.94,20-11.7,30.75-16A65,65,0,0,1-608.55,40C-607.64,39.94-606,39.37-606.3,41.47Z" transform="translate(792.23 46.67)"/><path class="cls-18" d="M-674.33,65.34h-8c3-5.48,7.71-8.73,13.26-11.56,4-2,7-5.87,10.94-8.34,9.39-5.85,19.46-9.87,30-13.29,8.1-2.64,16.34-3.79,24.66-4.91.8-.11,1.59-.57,2.25.28a37.94,37.94,0,0,1-4,11.13c-1.87-1.5-.5-3.33-.48-4.81a163.68,163.68,0,0,0-25.83,6.35,113.09,113.09,0,0,0-33.39,18.14C-668,60.76-670.85,63.47-674.33,65.34Z" transform="translate(792.23 46.67)"/><path class="cls-44" d="M-661.3,66.31c4.53-2,9.31-.49,14-1a6.28,6.28,0,0,1,4.09-1.45c8.39-.22,16.77-.11,25.16,0,1.38,0,3.76-.42,2.75,2.5l0,0Z" transform="translate(792.23 46.67)"/><path class="cls-22" d="M-668.33,34.36l5-1v2c-2,.33-3.88,1.36-6,1Z" transform="translate(792.23 46.67)"/><path class="cls-24" d="M-677.33,79.34c-3.88,6.38-7.44,13-11.78,19a46.23,46.23,0,0,0-5.28,10.48,25.2,25.2,0,0,1-2.93,4.46c.92-10.8,7.5-18.82,13.62-27C-681.83,83.88-681.2,80.06-677.33,79.34Z" transform="translate(792.23 46.67)"/><path class="cls-26" d="M-523.41,277.23c-.33,1.67-.66,3.33-1,5h-5C-528.65,279.07-526,278.13-523.41,277.23Z" transform="translate(792.23 46.67)"/><path class="cls-26" d="M-508.42,268.24c-.77,2.49-2.5,3.37-5,3C-512.36,269.22-510.47,268.58-508.42,268.24Z" transform="translate(792.23 46.67)"/><path class="cls-26" d="M-518.41,275.23l-4,2C-522.08,274.55-520,275.42-518.41,275.23Z" transform="translate(792.23 46.67)"/><path class="cls-45" d="M-523.41,282.23c3.67-3.61,8.82-4.84,12.8-8,4.68-3.66,9.44-7.22,14.06-11a4.61,4.61,0,0,1,3.13-1.07c-6.5,10.38-17.92,14.21-27.42,20.6A1.74,1.74,0,0,1-523.41,282.23Z" transform="translate(792.23 46.67)"/><path class="cls-38" d="M-464.44,226.26c1.12-8.62,6.49-15.51,9.6-23.33.71-1.8,1.88-3.54,1.74-5.42-.17-2.24.68-3,2.65-3.23a34.72,34.72,0,0,1-4.33,13.39c-2.87,5.37-4.47,11.46-7.55,16.86C-462.88,225.49-463.32,226.17-464.44,226.26Z" transform="translate(792.23 46.67)"/><path class="cls-38" d="M-450.45,193.28c-1.57-3.5-.78-6.47,2-9C-447.58,187.62-448.7,190.52-450.45,193.28Z" transform="translate(792.23 46.67)"/><path class="cls-38" d="M-448.45,182.28c0-1.1-.18-2.28,1-3C-445.65,181-447.38,181.53-448.45,182.28Z" transform="translate(792.23 46.67)"/><path class="cls-17" d="M-580.5,35.6a35.32,35.32,0,0,1-3-10c3.53-4.45,7.46-.37,11-.1,9.13.69,17.62,4.39,26.33,7.15,15.82,5,29,14.14,40.85,25,6.77,6.22,13.32,12.75,18.48,20.87s10.63,16.32,14,25.37c3.33,8.84,7.51,17.5,7.44,27.45,0,4.65,1.89,9.31,2.93,14-2.48.14-4.91-1-4.73-3.31.4-5.13-2.38-9.6-2.29-14.59.06-3.89-1.95-7.3-2.93-11a104.16,104.16,0,0,0-22.22-41.41c-2.09-2.43-1.42-6.29-4.79-7.7-1.31-.68-2.84-.31-4.19-.82a4.5,4.5,0,0,1-.94-1.1c-2.73-5.28-7.8-8.17-12.24-11.55C-533.77,41-552.62,32.34-574,29.74c-5.41-.66-5.41-.69-5.59,4.71A2.23,2.23,0,0,1-580.5,35.6Z" transform="translate(792.23 46.67)"/><path class="cls-15" d="M-584.4,23.43c-2-3.79-2.84-8-3.89-12.06h.92l2,4C-585,18.06-584.73,20.74-584.4,23.43Z" transform="translate(792.23 46.67)"/><path class="cls-24" d="M-504.42,83.34c3.47,2,6.5,4.32,6,9C-502.24,90.54-501.64,85.81-504.42,83.34Z" transform="translate(792.23 46.67)"/><path class="cls-24" d="M-508.42,78.34c2.91.41,4.1,2.19,4,5C-507.29,82.9-507.13,80-508.42,78.34Z" transform="translate(792.23 46.67)"/><path class="cls-24" d="M-496.42,94.33c2.47.43,2.88,1.89,2,4C-496.24,97.57-496.52,96-496.42,94.33Z" transform="translate(792.23 46.67)"/><path class="cls-14" d="M-503.45,66.3c1.39.19,3-.42,4,1l-1.27.93c-1.47-1.7-3.44-.9-5.17-.9-19.81,0-39.63,0-59.45,0-1.72,0-3.71.79-5.13-1a3.62,3.62,0,0,1,1.62-1c15.43-.8,30.87-.14,46.3-.37,4.47,0,8.94,0,13.41,0C-507.12,65-505.09,64.82-503.45,66.3Z" transform="translate(792.23 46.67)"/><path class="cls-23" d="M-580.5,35.6l.19-1.22c2.18-2.68,4.82-2.76,8.08-2.18,11.69,2.1,22.66,6.53,33.47,11a69.26,69.26,0,0,1,17.57,11c2.89,2.41,7,3.31,8.79,7.13.69,1.5,2.12,2.8.07,4.27-7.39,1.76-13.28-1.52-18.73-5.84C-538.21,54.11-546.87,51.6-555,48c-5.64-2.53-11.71-3.69-17.74-4.81a15.62,15.62,0,0,1-5.84-2.49A6.89,6.89,0,0,1-580.5,35.6Z" transform="translate(792.23 46.67)"/><path class="cls-20" d="M-674.33,65.34c8.85-9.74,19.88-16.06,31.66-21.77,9.27-4.5,18.92-6.91,28.68-9.45,3.37-.88,7.28,0,10.11-3.66.23,3.28-2,5.5-1.34,8.2a3.34,3.34,0,0,1-1.08,2.81c-8.38-.2-16.23,1.9-24,4.93A167.13,167.13,0,0,0-664,64.73C-666.83,66.65-670.87,65.1-674.33,65.34Z" transform="translate(792.23 46.67)"/><path class="cls-43" d="M-578.57,40.66c10.31,2.21,20.86,3.54,30.23,9a34.26,34.26,0,0,0,7,2.81c5.6,1.73,9.77,5.35,14.24,8.57s9.15,5.12,14.72,4.3c3-1.74,6-2.15,9,0,0,.32,0,.63,0,1h-19c-4.89-1.06-9.83-.2-14.73-.47-3.1-.26-4.41-3.42-7.06-4.43-7.66-2.91-14.6-7.74-23.33-7.79a8.35,8.35,0,0,1-8.09-5.69c-1.3-1.65-1.26-3.93-2.62-5.55Z" transform="translate(792.23 46.67)"/><path class="cls-12" d="M-575.38,47.36c3.12,5.38,8.84,4.26,13.62,5.83,8.35,2.75,17.6,4.26,23.36,12.15-7.53,1.09-15.1.16-22.64.5-2.77.13-5.59-.5-8.32.46l-1.07,0a58,58,0,0,1-4.06-12.7C-574.62,51.53-576.76,49.69-575.38,47.36Z" transform="translate(792.23 46.67)"/><path class="cls-12" d="M-615.34,66.35c-.17-.87-.43-1.32-1.6-1.3-10.13.16-20.27.21-30.4.29,1.55-4.14,5.93-4.74,9.07-6.26,6.7-3.26,14.13-5,21-7.95,2.29-1,4.59.9,6.5-.89l.51,2.38C-611.6,57.32-612.85,62.07-615.34,66.35Z" transform="translate(792.23 46.67)"/><path class="cls-23" d="M-575.38,47.36q.45,3.14.89,6.29c-2-3.49-2.76-7.43-3.77-11.27C-576.06,43.32-576.52,45.8-575.38,47.36Z" transform="translate(792.23 46.67)"/><path class="cls-46" d="M-503.42,65.35h-9c.71-3.27-1.92-5.84-3.71-6.45-5.86-2-10.3-6.49-15.07-9.68-6-4-12.46-6.38-18.7-9.15-7.81-3.46-16.48-5-24.81-7.28-2.1-.58-3.57,1.63-5.61,1.6a23.83,23.83,0,0,0-.54-2.92c-.92-3-.75-3.93,3.13-3.52a116.93,116.93,0,0,1,38.24,10.55,115.09,115.09,0,0,1,25.24,15.88C-510.29,57.7-505.25,59.93-503.42,65.35Z" transform="translate(792.23 46.67)"/><path class="cls-47" d="M-569.36,66.3c2.36-1.89,5.1-.85,7.65-.9,7.77-.15,15.54-.06,23.31-.06,5.31.53,10.75-1.08,16,1Z" transform="translate(792.23 46.67)"/></svg>